<svg xmlns="http://www.w3.org/2000/svg" viewBox="0 0 3000 3000" width="3000" height="3000"><g transform="translate(328.0 370.0) rotate(0.0 434.0 562.0) scale(2.0031478036915153 2.0024228604004843)"><svg width="433.318" height="561.32" viewBox="0 0 433.318 561.32"><linearGradient id="a" gradientUnits="userSpaceOnUse" x1="171.062" x2="229.838" y1="458.921" y2="31.534"><stop offset=".074" stop-color="#05d8e8"/><stop offset=".995" stop-color="#005679"/></linearGradient><path d="m410.428 126.37-52.65 163.12c-20.69 64.1-62.26 121.97-120.94 165.58l-97.82 72.69-64.16-105.86c-20.21-33.34-34.8-68.68-43.59-104.66l6.89 1.48 5.5 1.18 6.78-29.69-18.83-3.68 5.79-26.27-9.11-2.1-6.29-1.45c-.97-15.53-.85-31.03.36-46.4L36.788 27.3c77.22 24.73 145.32 22.94 203.48-4.03 41.17 53.56 98.5 88.21 170.16 103.1z" fill="url(#a)" opacity=".7"/><path d="M239.138 10c-63.05 28.8-137.1 30.43-221.22 3.3L1.238 212.21c-1.3 15.46-1.57 31.04-.84 46.67l16.6 3.83 6.29 1.45c-1.06-15.49-1.01-30.96.17-46.3l13.61-176.95c74.6 23.84 140.42 21.99 196.72-4.26 39.83 51.88 95.34 85.4 164.78 99.77l-51.31 157.87c-20.11 61.86-60.33 117.59-116.98 159.48l-94.19 69.65-61.8-101.76c-18.76-30.91-32.53-63.61-41.13-96.94l-6.89-1.48-18.04-3.87c9.14 42.98 25.84 85.34 49.84 125.16l70.42 116.79 107.47-80.9c64.07-48.22 109.15-111.77 131.33-181.79l56.03-176.8c-77.41-16.29-139.53-53.9-184.18-111.83z" fill="#83bbff" opacity=".9"/><path d="M249.138 4c-63.05 28.8-137.1 30.43-221.22 3.3l-16.68 198.91c-1.3 15.46-1.57 31.04-.84 46.67l16.6 3.83 6.29 1.45c-1.06-15.49-1.01-30.96.17-46.3l13.61-176.95c74.6 23.84 140.42 21.99 196.72-4.26 39.83 51.88 95.34 85.4 164.78 99.77l-51.31 157.87c-20.11 61.86-60.33 117.59-116.98 159.48l-94.19 69.65-61.8-101.76c-18.76-30.91-32.53-63.61-41.13-96.94l-6.89-1.48-18.04-3.87c9.14 42.98 25.84 85.34 49.84 125.16l70.42 116.79 107.47-80.9c64.07-48.22 109.15-111.77 131.33-181.79l56.03-176.8C355.908 99.54 293.788 61.93 249.138 4z" fill="#7afcb5" opacity=".9"/><path d="M239.138 0c-63.05 28.8-137.1 30.43-221.22 3.3L1.238 202.21c-1.3 15.46-1.57 31.04-.84 46.67l16.6 3.83 6.29 1.45c-1.06-15.49-1.01-30.96.17-46.3l13.61-176.95c74.6 23.84 140.42 21.99 196.72-4.26 39.83 51.88 95.34 85.4 164.78 99.77l-51.31 157.87c-20.11 61.86-60.33 117.59-116.98 159.48l-94.19 69.65-61.8-101.76c-18.76-30.91-32.53-63.61-41.13-96.94l-6.89-1.48-18.04-3.87c9.14 42.98 25.84 85.34 49.84 125.16l70.42 116.79 107.47-80.9c64.07-48.22 109.15-111.77 131.33-181.79l56.03-176.8C345.908 95.54 283.788 57.93 239.138 0z" fill="#ff719d" opacity=".9"/><path d="M244.138 4c-63.05 28.8-137.1 30.43-221.22 3.3L6.238 206.21c-1.3 15.46-1.57 31.04-.84 46.67l16.6 3.83 6.29 1.45c-1.06-15.49-1.01-30.96.17-46.3l13.61-176.95c74.6 23.84 140.42 21.99 196.72-4.26 39.83 51.88 95.34 85.4 164.78 99.77l-51.31 157.87c-20.11 61.86-60.33 117.59-116.98 159.48l-94.19 69.65-61.8-101.76c-18.76-30.91-32.53-63.61-41.13-96.94l-6.89-1.48-18.04-3.87c9.14 42.98 25.84 85.34 49.84 125.16l70.42 116.79 107.47-80.9c64.07-48.22 109.15-111.77 131.33-181.79l56.03-176.8C350.908 99.54 288.788 61.93 244.138 4z" fill="#d1f9ff"/></svg></g><g transform="translate(124.0 558.0) rotate(0.0 1086.0 222.0) scale(2.012570224523891 2.012528442828781)"><svg width="1079.217" height="220.618" viewBox="0 0 1079.217 220.618"><linearGradient id="b" gradientUnits="userSpaceOnUse" x1="118.494" x2="69.973" y1="44.129" y2="13.346"><stop offset=".165" stop-color="#05d8e8"/><stop offset=".995" stop-color="#005679"/></linearGradient><linearGradient xmlns:xlink="http://www.w3.org/1999/xlink" id="d" x1="397.152" x2="487.413" xlink:href="#b" y1="60.943" y2="87.552"/><linearGradient xmlns:xlink="http://www.w3.org/1999/xlink" id="e" x1="749.874" x2="963.526" xlink:href="#b" y1="59.701" y2="125.44"/><linearGradient id="c" gradientUnits="userSpaceOnUse" x1="52.397" x2="131.277" y1="26.797" y2="26.797"><stop offset="0" stop-color="#05d8e8" stop-opacity="0"/><stop offset=".143" stop-color="#05d8e8"/><stop offset=".51" stop-color="#05d8e8" stop-opacity=".4"/><stop offset=".859" stop-color="#05d8e8"/><stop offset="1" stop-color="#05d8e8" stop-opacity="0"/></linearGradient><linearGradient xmlns:xlink="http://www.w3.org/1999/xlink" id="f" x1="410.973" x2="495.276" xlink:href="#c" y1="77.016" y2="77.016"/><linearGradient xmlns:xlink="http://www.w3.org/1999/xlink" id="g" x1="767.043" x2="935.773" xlink:href="#c" y1="82.31" y2="82.31"/><path d="M55.01 36.414 66.783 2.388l61.913 15.652-11.123 33.187z" fill="url(#b)" opacity=".7"/><path d="m413.284 79.878 4.421-23.965 75.34 19.12-3.262 23.094z" fill="url(#d)" opacity=".7"/><path d="M769.043 60.301V20.388l63.392 17.609v31.696l51.652 12.929V69.301l49.685 13.321v38.527l-46.876-11.822.321 34.974-78.652-19.435.82-53.615z" fill="url(#e)" opacity=".7"/><path d="M118.89 53.594 52.397 37.85 65.492 0l65.785 16.63-12.388 36.964zM57.623 34.977l58.634 13.883 9.856-29.409L68.072 4.778z" fill="url(#c)" opacity=".6"/><path d="m491.455 100.582-80.482-19.199 5.152-27.934 79.151 20.086zm-75.859-22.209 72.514 17.299 2.704-19.143-71.53-18.152-3.687 19.996z" fill="url(#f)" opacity=".6"/><path d="m889.24 146.861-82.699-20.436.82-53.651-40.318-10.944V17.758l67.392 18.719v31.654l47.652 11.929V66.695l53.686 14.394v42.629l-46.853-11.816.32 34.961zm-78.65-23.555 74.604 18.434-.32-34.986 46.899 11.828V84.156l-45.686-12.249v13.277l-55.652-13.931V39.517l-59.392-16.498v35.752l40.365 10.956z" fill="url(#g)" opacity=".6"/><g fill="#83bbff"><path d="m11.87 176.27 57.391 12.802-8.348 31.546L3 205.505zm525.549-18.229 2.914-36.578 76.232 20.413-1.977 36.783zm380.19 30.652v-28.435l58.326 14.522.63 26.695zm97.826-22.827v-21.782l60 16.174.782 21.652z"/></g><path d="m8.87 170.27 57.391 12.802-8.348 31.546L0 199.505zm525.549-18.229 2.914-36.578 76.232 20.413-1.977 36.783zm380.19 30.652v-28.435l58.326 14.522.63 26.695zm97.826-22.827v-21.782l60 16.174.782 21.652z" fill="#7afcb5"/><path d="m14.87 168.27 57.391 12.802-8.348 31.546L6 197.505zm525.549-18.229 2.914-36.578 76.232 20.413-1.977 36.783zm380.19 30.652v-28.435l58.326 14.522.63 26.695zm97.826-22.827v-21.782l60 16.174.782 21.652z" fill="#ff719d"/><path d="m11.87 171.27 57.391 12.802-8.348 31.546L3 200.505zm525.549-18.229 2.914-36.578 76.232 20.413-1.977 36.783zm380.19 30.652v-28.435l58.326 14.522.63 26.695zm97.826-22.827v-21.782l60 16.174.782 21.652z" fill="#d1f9ff"/></svg></g><g transform="translate(338.0 702.0) rotate(0.0 1210.0 968.0) scale(2.0028934361374944 2.0023125882992963)"><svg width="1208.252" height="966.882" viewBox="0 0 1208.252 966.882"><linearGradient id="i" gradientUnits="userSpaceOnUse" x1="882.623" x2="895.145" y1="395.621" y2="711.795"><stop offset="0" stop-color="#05d8e8" stop-opacity="0"/><stop offset=".143" stop-color="#05d8e8"/><stop offset=".51" stop-color="#05d8e8" stop-opacity=".4"/><stop offset=".859" stop-color="#05d8e8"/><stop offset="1" stop-color="#05d8e8" stop-opacity="0"/></linearGradient><linearGradient id="h" gradientUnits="userSpaceOnUse" x1="892.347" x2="905.391" y1="393.27" y2="714.14"><stop offset="0" stop-color="#fa87ff" stop-opacity="0"/><stop offset=".143" stop-color="#fa87ff"/><stop offset=".564" stop-color="#fa87ff" stop-opacity=".4"/><stop offset=".859" stop-color="#fa87ff"/><stop offset="1" stop-color="#fa87ff" stop-opacity="0"/></linearGradient><linearGradient xmlns:xlink="http://www.w3.org/1999/xlink" id="l" x1="955.891" x2="976.239" xlink:href="#h" y1="413.26" y2="719.521"/><linearGradient xmlns:xlink="http://www.w3.org/1999/xlink" id="m" x1="947.602" x2="963.776" xlink:href="#i" y1="402.423" y2="727.466"/><linearGradient id="n" gradientUnits="userSpaceOnUse" x1="1193.953" x2="1204.909" y1="888.828" y2="955.088"><stop offset=".215" stop-color="#fa87ff" stop-opacity="0"/><stop offset=".322" stop-color="#fa87ff"/><stop offset=".564" stop-color="#fa87ff" stop-opacity=".4"/><stop offset=".859" stop-color="#fa87ff"/><stop offset="1" stop-color="#fa87ff" stop-opacity="0"/></linearGradient><linearGradient xmlns:xlink="http://www.w3.org/1999/xlink" id="o" x1="760.534" x2="884.708" xlink:href="#i" y1="686.153" y2="918.849"/><linearGradient xmlns:xlink="http://www.w3.org/1999/xlink" id="p" x1="904.365" x2="1203.843" xlink:href="#h" y1="932.775" y2="963.557"/><linearGradient id="k" gradientUnits="userSpaceOnUse" x1="1198.167" x2="863.943" y1="645.707" y2="867.666"><stop offset="0" stop-color="#fa87ff" stop-opacity=".3"/><stop offset=".959" stop-color="#ff296d"/></linearGradient><linearGradient xmlns:xlink="http://www.w3.org/1999/xlink" id="q" x1="805.954" x2="961.694" xlink:href="#i" y1="651.432" y2="781.736"/><linearGradient xmlns:xlink="http://www.w3.org/1999/xlink" id="r" x1="948.312" x2="1177.355" xlink:href="#h" y1="939.619" y2="776.837"/><linearGradient id="j" gradientUnits="userSpaceOnUse" x1="914.393" x2="884.654" y1="712.304" y2="708"><stop offset="0" stop-color="#fa87ff" stop-opacity=".5"/><stop offset=".917" stop-color="#05d8e8"/></linearGradient><linearGradient xmlns:xlink="http://www.w3.org/1999/xlink" id="s" x1="882.26" x2="856.042" xlink:href="#j" y1="707.141" y2="703.423"/><linearGradient xmlns:xlink="http://www.w3.org/1999/xlink" id="t" x1="838.126" x2="799.191" xlink:href="#j" y1="699.977" y2="694.303"/><linearGradient xmlns:xlink="http://www.w3.org/1999/xlink" id="u" x1="753.909" x2="1097.735" xlink:href="#h" y1="568.726" y2="638.117"/><linearGradient xmlns:xlink="http://www.w3.org/1999/xlink" id="v" x1="758.655" x2="764.394" xlink:href="#i" y1="545.768" y2="463.333"/><linearGradient xmlns:xlink="http://www.w3.org/1999/xlink" id="w" gradientTransform="matrix(.13412455 .99096448 -.99096448 .13412455 1541.126 -43.015)" x1="743.961" x2="846.222" xlink:href="#h" y1="852.273" y2="868.447"/><linearGradient xmlns:xlink="http://www.w3.org/1999/xlink" id="x" x1="910.767" x2="730.134" xlink:href="#k" y1="704.898" y2="788.697"/><linearGradient xmlns:xlink="http://www.w3.org/1999/xlink" id="y" gradientTransform="matrix(.13258508 .99117163 -.99117163 .13258508 1407.401 -103.637)" x1="697.022" x2="829.544" xlink:href="#i" y1="744.764" y2="759.895"/><linearGradient xmlns:xlink="http://www.w3.org/1999/xlink" id="z" gradientTransform="matrix(.12088186 .9926669 -.9926669 .12088186 1478.179 -83.81)" x1="724.567" x2="856.567" xlink:href="#h" y1="786.045" y2="800.132"/><linearGradient xmlns:xlink="http://www.w3.org/1999/xlink" id="A" x1="212.926" x2="141.709" xlink:href="#h" y1="307.845" y2="633.411"/><linearGradient xmlns:xlink="http://www.w3.org/1999/xlink" id="B" x1="200.548" x2="137.156" xlink:href="#i" y1="311.535" y2="630.839"/><linearGradient xmlns:xlink="http://www.w3.org/1999/xlink" id="C" x1="242.344" x2="207.127" xlink:href="#h" y1="441.692" y2="620.909"/><linearGradient xmlns:xlink="http://www.w3.org/1999/xlink" id="D" x1="243.129" x2="185.216" xlink:href="#i" y1="385.187" y2="668.491"/><linearGradient xmlns:xlink="http://www.w3.org/1999/xlink" id="E" x1="557.886" x2="532.06" xlink:href="#i" y1="369.917" y2="660.264"/><linearGradient xmlns:xlink="http://www.w3.org/1999/xlink" id="F" x1="562.555" x2="546.12" xlink:href="#h" y1="447.131" y2="687.391"/><linearGradient id="G" gradientUnits="userSpaceOnUse" x1="600.971" x2="604.884" y1="646.113" y2="369.07"><stop offset="0" stop-color="#05d8e8" stop-opacity="0"/><stop offset=".143" stop-color="#05d8e8"/><stop offset=".859" stop-color="#05d8e8"/><stop offset="1" stop-color="#05d8e8" stop-opacity="0"/></linearGradient><linearGradient xmlns:xlink="http://www.w3.org/1999/xlink" id="H" x1="615.113" x2="601.026" xlink:href="#h" y1="378.93" y2="697.452"/><linearGradient xmlns:xlink="http://www.w3.org/1999/xlink" id="I" x1="764.349" x2="761.74" xlink:href="#i" y1="162.133" y2="387.002"/><linearGradient xmlns:xlink="http://www.w3.org/1999/xlink" id="J" x1="753.385" x2="1089.385" xlink:href="#h" y1="405.604" y2="484.386"/><linearGradient xmlns:xlink="http://www.w3.org/1999/xlink" id="K" x1="99.144" x2="9.144" xlink:href="#i" y1="18.796" y2="399.926"/><linearGradient xmlns:xlink="http://www.w3.org/1999/xlink" id="L" x1="2.294" x2="700.381" xlink:href="#h" y1="453.218" y2="519.74"/><linearGradient xmlns:xlink="http://www.w3.org/1999/xlink" id="M" x1="416.067" x2="623.458" xlink:href="#h" y1="532.564" y2="506.738"/><linearGradient xmlns:xlink="http://www.w3.org/1999/xlink" id="N" x1="863.939" x2="18.097" xlink:href="#k" y1="17.058" y2="453.986"/><linearGradient xmlns:xlink="http://www.w3.org/1999/xlink" id="O" x1="769.467" x2="51.032" xlink:href="#h" y1="265.617" y2="594.313"/><linearGradient xmlns:xlink="http://www.w3.org/1999/xlink" id="P" x1="-51.41" x2="605.199" xlink:href="#i" y1="262.703" y2="-19.036"/><linearGradient id="Q" gradientUnits="userSpaceOnUse" x1="842.405" x2="142.753" y1="121.466" y2="339.814"><stop offset=".106" stop-color="#05d8e8"/><stop offset=".995" stop-color="#005679"/></linearGradient><linearGradient xmlns:xlink="http://www.w3.org/1999/xlink" id="R" x1="89.765" x2="667.33" xlink:href="#i" y1="60.003" y2="550.699"/><linearGradient id="S" gradientUnits="userSpaceOnUse" x1="1169.819" x2="782.468" y1="170.859" y2="413.947"><stop offset="0" stop-color="#fa87ff" stop-opacity=".3"/><stop offset=".876" stop-color="#ff296d"/></linearGradient><linearGradient id="T" gradientUnits="userSpaceOnUse" x1="1127.261" x2="809" y1="322.939" y2="498.765"><stop offset="0" stop-color="#fa87ff" stop-opacity="0"/><stop offset=".143" stop-color="#fa87ff"/><stop offset=".516" stop-color="#fa87ff" stop-opacity=".4"/><stop offset=".835" stop-color="#fa87ff"/><stop offset="1" stop-color="#fa87ff" stop-opacity="0"/></linearGradient><linearGradient xmlns:xlink="http://www.w3.org/1999/xlink" id="U" x1="757.801" x2="1066.532" xlink:href="#i" y1="270.781" y2="270.781"/><linearGradient id="V" gradientUnits="userSpaceOnUse" x1="1112.078" x2="824.47" y1="150.621" y2="424.142"><stop offset=".191" stop-color="#05d8e8"/><stop offset=".971" stop-color="#005679"/></linearGradient><linearGradient xmlns:xlink="http://www.w3.org/1999/xlink" id="W" x1="759.546" x2="1100.763" xlink:href="#i" y1="172.339" y2="473.904"/><linearGradient id="X" gradientUnits="userSpaceOnUse" x1="1281.912" x2="819.672" y1="462.031" y2="579.595"><stop offset=".041" stop-color="#fa87ff" stop-opacity=".3"/><stop offset=".935" stop-color="#ff296d"/></linearGradient><linearGradient xmlns:xlink="http://www.w3.org/1999/xlink" id="Y" x1="1108.975" x2="772.454" xlink:href="#h" y1="563.436" y2="621.871"/><linearGradient xmlns:xlink="http://www.w3.org/1999/xlink" id="Z" x1="757.782" x2="1096.136" xlink:href="#i" y1="501.788" y2="501.788"/><linearGradient id="aa" gradientUnits="userSpaceOnUse" x1="1180.914" x2="783.563" y1="502.268" y2="578.915"><stop offset=".072" stop-color="#05d8e8"/><stop offset=".922" stop-color="#005679"/></linearGradient><linearGradient xmlns:xlink="http://www.w3.org/1999/xlink" id="ab" x1="778.275" x2="1129.405" xlink:href="#i" y1="480.575" y2="632.401"/><linearGradient xmlns:xlink="http://www.w3.org/1999/xlink" id="ac" x1="404.797" x2="69.058" xlink:href="#j" y1="464.249" y2="405.554"/><linearGradient xmlns:xlink="http://www.w3.org/1999/xlink" id="ad" x1="180.952" x2="781.996" xlink:href="#h" y1="828.687" y2="884.252"/><linearGradient xmlns:xlink="http://www.w3.org/1999/xlink" id="ae" x1="93.139" x2="155.747" xlink:href="#i" y1="588.825" y2="833.782"/><linearGradient id="af" gradientUnits="userSpaceOnUse" x1="890.639" x2="171.168" y1="584.676" y2="781.927"><stop offset="0" stop-color="#fa87ff" stop-opacity=".3"/><stop offset=".949" stop-color="#ff296d"/></linearGradient><linearGradient id="ag" gradientUnits="userSpaceOnUse" x1="198.062" x2="808.497" y1="723.699" y2="759.699"><stop offset="0" stop-color="#fa87ff" stop-opacity="0"/><stop offset=".143" stop-color="#fa87ff"/><stop offset=".564" stop-color="#fa87ff" stop-opacity=".4"/><stop offset=".812" stop-color="#fa87ff" stop-opacity="0"/><stop offset=".925" stop-color="#fa87ff"/></linearGradient><linearGradient id="ah" gradientUnits="userSpaceOnUse" x1="102.232" x2="657.884" y1="665.366" y2="696.67"><stop offset=".04" stop-color="#05d8e8"/><stop offset=".143" stop-color="#05d8e8" stop-opacity="0"/><stop offset=".51" stop-color="#05d8e8" stop-opacity=".4"/><stop offset=".859" stop-color="#05d8e8"/><stop offset="1" stop-color="#05d8e8" stop-opacity="0"/></linearGradient><linearGradient xmlns:xlink="http://www.w3.org/1999/xlink" id="ai" x1="799.875" x2="160.764" xlink:href="#j" y1="748.747" y2="682.316"/><linearGradient id="aj" gradientUnits="userSpaceOnUse" x1="545.132" x2="492.893" y1="503.96" y2="507.677"><stop offset=".27" stop-color="#fa87ff" stop-opacity=".5"/><stop offset=".917" stop-color="#05d8e8"/></linearGradient><linearGradient id="ak" gradientTransform="matrix(.19921401 .97995601 -.97995601 .19921401 933.763 476.723)" gradientUnits="userSpaceOnUse" x1="181.429" x2="168.008" y1="776.801" y2="847.566"><stop offset="0" stop-color="#05d8e8" stop-opacity="0"/><stop offset=".143" stop-color="#05d8e8"/><stop offset=".755" stop-color="#05d8e8" stop-opacity=".4"/><stop offset=".937" stop-color="#05d8e8" stop-opacity="0"/></linearGradient><linearGradient xmlns:xlink="http://www.w3.org/1999/xlink" id="al" x1="856.476" x2="1107.241" xlink:href="#i" y1="794.382" y2="794.382"/><linearGradient id="am" gradientTransform="matrix(.99868648 .05123787 -.05123787 .99868648 47.177 -44.663)" gradientUnits="userSpaceOnUse" x1="893.292" x2="895.901" y1="868.54" y2="928.018"><stop offset="0" stop-color="#05d8e8" stop-opacity="0"/><stop offset=".324" stop-color="#05d8e8"/><stop offset=".711" stop-color="#05d8e8" stop-opacity=".4"/><stop offset="1" stop-color="#05d8e8" stop-opacity="0"/></linearGradient><path d="m875.094 247.609 13.99-.5 16.69 466.927-13.99.5zm62.022 8.725 13.98-.788 26.283 466.315-13.98.788z" fill="#321450"/><path d="m889.855 716.607-16.831-470.925 9.104-.326.143 3.998-5.106.183 16.546 462.93 6.931-.248.142 3.998z" fill="url(#i)" opacity=".6"/><path d="m900.784 716.217-.142-3.998 3.061-.11-16.546-462.929-4.886.174-.143-3.998 8.885-.317 16.831 470.926z" fill="url(#h)" opacity=".6"/><path d="m968.853 724.349-.225-3.995 6.64-.374-26.058-462.321-4.97.28-.224-3.994 8.963-.505.113 1.998 26.394 468.312z" fill="url(#l)" opacity=".6"/><path d="m961.515 724.762-.114-1.997-26.394-468.313 9.009-.507.224 3.994-5.014.283 26.057 462.321 3.345-.189.225 3.995z" fill="url(#m)" opacity=".6"/><path d="M768.923 674.014a220.722 220.722 0 0 0 35.516 120.071l85.591 132.023a14.52 14.52 0 0 0 10.621 6.537l297.606 32.194c4.743.513 8.669-3.635 7.897-8.342l-8.779-53.508-144.566-169.749z" fill="#321450"/><path d="m1205.727 964-2.906-2.75a5.17 5.17 0 0 0 1.359-4.43l-8.778-53.508 3.947-.648 8.778 53.508a9.146 9.146 0 0 1-2.4 7.828z" fill="url(#n)" opacity=".6"/><path d="m891.707 925.02-85.591-132.022c-23.023-35.515-35.193-76.658-35.193-118.983h-4c0 43.1 12.393 84.995 35.838 121.159l85.591 132.022a16.543 16.543 0 0 0 3.705 4.05l2.209-3.375a12.535 12.535 0 0 1-2.559-2.851z" fill="url(#o)" opacity=".6"/><path d="M1202.82 961.25a5.175 5.175 0 0 1-4.349 1.601l-297.605-32.194a12.466 12.466 0 0 1-6.601-2.786l-2.209 3.375a16.461 16.461 0 0 0 8.38 3.387l297.604 32.194c.341.037.68.055 1.016.055a9.135 9.135 0 0 0 6.67-2.882z" fill="url(#p)" opacity=".6"/><path d="m768.923 674.014 285.645 45.727a14.223 14.223 0 0 1 9.12 5.496l133.687 177.751-300.996-37.994a10.428 10.428 0 0 1-7.462-4.7L768.922 674.013z" fill="url(#k)"/><path d="m887.235 861.378-122.42-190.047 290.069 46.436-.633 3.949-281.221-45.02 117.569 182.516z" fill="url(#q)" opacity=".6"/><path d="m1201.815 905.564-305.687-38.586a12.401 12.401 0 0 1-8.894-5.601l3.363-2.166a8.408 8.408 0 0 0 6.03 3.798l296.306 37.402-130.845-173.973a12.163 12.163 0 0 0-7.839-4.724l.633-3.949a16.143 16.143 0 0 1 10.403 6.269l136.528 181.529z" fill="url(#r)" opacity=".6"/><path d="M1028.275 860.193c-64.5-8.713-137.554-46.169-161.944-83.143-24.065-36.481 9.15-57.675 72.921-47.982 62.637 9.52 132.327 45.512 157.103 81.034 25.099 35.987-4.754 58.645-68.08 50.091z" fill="#005679" opacity=".6"/><path d="M1078.097 807.815c-20.624-29.699-78.923-59.79-131.246-67.672-53.113-8-80.555 9.764-60.425 40.131 20.356 30.707 80.99 61.815 134.607 69.136 52.804 7.21 77.912-11.571 57.063-41.594z" fill="#005679" opacity=".6"/><path d="M1013.482 838.285c-42.788-5.904-91.102-30.707-107.411-55.189-16.165-24.266 5.6-38.559 48.067-32.221 41.96 6.263 88.779 30.414 105.259 54.252 16.624 24.046-3.647 38.99-45.915 33.158z" fill="#0ea8cc" opacity=".6"/><path d="M1040.596 802.426c-12.346-17.937-47.597-36.111-79.143-40.776-31.832-4.707-48.014 6.074-35.846 24.253 12.25 18.3 48.341 36.839 80.353 41.303 31.721 4.423 47.063-6.725 34.636-24.78z" fill="#0ea8cc" opacity=".6"/><path d="M998.468 816.171c-21.289-2.999-45.254-15.317-53.432-27.476-8.142-12.105 2.553-19.334 23.762-16.227 21.082 3.088 44.674 15.244 52.895 27.242s-2.064 19.442-23.224 16.461z" fill="#05d8e8" opacity=".6"/><path d="M1002.685 796.979c-4.105-6.019-15.947-12.117-26.514-13.65-10.598-1.538-15.899 2.097-11.813 8.143 4.095 6.059 16.03 12.198 26.648 13.708 10.586 1.506 15.793-2.169 11.679-8.201z" fill="#05d8e8" opacity=".6"/><path d="M908.005 714.031a2.47 2.47 0 0 1-.4-.032l-18.733-3.016a2.498 2.498 0 0 1-2.07-2.865 2.485 2.485 0 0 1 2.865-2.07l18.733 3.016a2.5 2.5 0 0 1-.395 4.968z" fill="url(#j)"/><path d="M878.143 709.225a2.47 2.47 0 0 1-.4-.032l-17.54-2.823a2.498 2.498 0 0 1-2.07-2.865 2.488 2.488 0 0 1 2.865-2.07l17.54 2.823a2.5 2.5 0 0 1-.395 4.968z" fill="url(#s)"/><path d="M830.515 701.56a2.47 2.47 0 0 1-.4-.032l-25.221-4.06c-1.363-.219-2.29-1.502-2.07-2.865s1.501-2.295 2.865-2.07l25.221 4.06a2.5 2.5 0 0 1-.395 4.968z" fill="url(#t)"/><path d="m747.242 484.862 21.913-22.695 12.559-4.416 301.484 65.068 25.61 32.087-2.311 83.237-12.559 4.415-325.28-56.231-19.85-33.965z" fill="#321450"/><path d="m1094.109 644.617-.512-.089-326.196-56.388-20.32-34.769 3.453-2.017 19.382 33.161 323.85 55.983 12.068-4.242 1.326 3.773z" fill="url(#u)" opacity=".6"/><path d="m746.809 552.408-1.585-68.334 22.821-23.637 13.006-4.573 1.326 3.774-12.111 4.258-21.005 21.754 1.546 66.666z" fill="url(#v)" opacity=".6"/><path d="m723.104 839.548 2.454 11.403 126.881 17.173-2.083-67.692-158.662-19.696z" fill="#321450"/><path d="M852.439 868.124c-1.54-11.053-2.122-22.639-2.54-33.8-.274-11.172-.408-22.757.457-33.893 1.548 11.053 2.127 22.639 2.54 33.8.269 11.172.401 22.757-.457 33.892z" fill="#005679"/><path d="M793.178 802.591h3.999v115.566h-3.999z" fill="url(#w)" opacity=".6" transform="matrix(.13412455 -.99096448 .99096448 .13412455 -164.074 1532.971)"/><path d="m850.356 800.432-25.692-39.885-139.226-18.623 23.477 41.284z" fill="url(#x)"/><path d="M760.912 689.986h4v124.603h-4z" fill="url(#y)" opacity=".6" transform="matrix(.13258508 -.99117163 .99117163 .13258508 -83.889 1408.716)"/><path d="M784.407 728.224h4v128.841h-4z" fill="url(#z)" opacity=".6" transform="matrix(.12088186 -.9926669 .9926669 .12088186 -95.485 1477.471)"/><g fill="#321450"><path d="m129.926 641.928 118.257-580.68 16.658 3.392-118.257 580.68zm55.676 9.972L303.859 71.22l16.658 3.392-118.257 580.68zm346.026 11.19 39.026-531.053 16.955 1.246-39.026 531.053zm54.006 24.664 29.184-539.747 16.974.918-29.184 539.747z"/></g><path d="m148.136 647.679-7.959-1.62.799-3.92 4.039.823L262.491 66.205l-5.931-1.208.798-3.92 9.852 2.007-.399 1.96z" fill="url(#A)" opacity=".6"/><path d="m140.177 646.059-12.619-2.571.399-1.96L246.632 58.894l10.726 2.183-.798 3.92-6.807-1.387-117.477 576.757 8.7 1.772z" fill="url(#B)" opacity=".6"/><path d="m203.813 657.651-10.462-2.13.798-3.919 6.542 1.332L318.167 76.177l-11.634-2.369.799-3.92 15.554 3.168-.4 1.96z" fill="url(#C)" opacity=".6"/><path d="m193.351 655.521-10.117-2.06.4-1.96L302.308 68.865l5.024 1.023-.799 3.92-1.104-.226L187.953 650.34l6.196 1.262z" fill="url(#D)" opacity=".6"/><path d="m541.985 665.857-12.498-.918.148-1.994 39.178-533.048 9.875.726-.293 3.99-5.887-.432-38.737 527.063 8.507.625z" fill="url(#E)" opacity=".6"/><path d="m550.432 666.479-8.447-.622.293-3.988 4.458.327 38.738-527.063-7.079-.52.293-3.99 11.069.815-.148 1.994z" fill="url(#F)" opacity=".6"/><path d="m592.805 690.147-9.284-.501.109-1.998 29.314-541.742 11.917.645-.215 3.994-7.924-.429-28.99 535.751 5.289.286z" fill="url(#G)" opacity=".6"/><path d="m604.49 690.78-11.686-.633.217-3.994 7.692.416 28.989-535.751-5.057-.273.216-3.994 9.052.49-.108 1.997z" fill="url(#H)" opacity=".6"/><path d="M749.59 394.49V182.273l30.037-25.956 278.767 77.087 23.022 30.13 14.341 213.217-10.211 7.043-314.565-64.26z" fill="#321450"/><path d="M751.59 394.49h-4V181.358l30.729-26.555 2.616 3.027-29.345 25.358z" fill="url(#I)" opacity=".6"/><path d="m1085.98 485.924-.834-.17-315.239-64.398-21.838-25.567 3.041-2.598 20.946 24.521 313.055 63.952 9.51-6.56 2.272 3.293z" fill="url(#J)" opacity=".6"/><path d="M1.947 419.312 94.421 24.904l8.674-7.174 564.492 119.132 30.323 34.976 2.674 313.957-45.718 34.304-172.956-33.652-84.758 37.797-361.909-63.078z" fill="#321450"/><path d="M3.895 419.769 0 418.856 92.627 23.791l9.193-7.603 2.549 3.083-8.154 6.745z" fill="url(#K)" opacity=".6"/><path d="m397.41 526.319-.601-.104-362.658-63.209L.382 420.558l3.131-2.491 32.822 41.259 360.56 62.843 84.777-37.806.62.121 172.084 33.483 45.008-33.772 2.4 3.2-46.428 34.837-173.208-33.701z" fill="url(#L)" opacity=".6"/><path d="m414.273 513.303 126.006 23.101 78.519-32.184 2.481-3.034-134.608-24.435-75.131 33.435z" fill="#321450"/><path d="m540.495 538.477-.576-.107-126.006-23.1.721-3.934 125.429 22.994 77.976-31.961 1.518 3.701z" fill="url(#M)" opacity=".6"/><path d="M10.621 412.139 103.095 17.73l48.032-15.653 525.134 127.611 30.323 34.976-6 321.131-37.044 27.13-172.956-33.652-84.758 37.797-361.909-63.078z" fill="url(#N)"/><path d="m406.084 519.146-.602-.105-362.657-63.209-33.769-42.448 3.131-2.49 32.822 41.258 360.559 62.843 84.778-37.806.62.122 172.097 33.484 35.54-26.028 5.967-319.372-29.819-34.396 3.021-2.621 30.826 35.556-.014.767-6.019 322.122-38.548 28.232-173.195-33.698z" fill="url(#O)" opacity=".6"/><path d="m12.568 412.596-3.894-.913 92.73-395.506L151.047 0l.553.134 525.134 127.611-.945 3.887L151.206 4.154l-46.421 15.128z" fill="url(#P)" opacity=".6"/><path d="m26.714 405.521 88.463-377.302 45.949-14.973 502.358 122.076 29.007 33.459-5.74 307.202-35.437 25.954-165.455-32.193-81.081 36.158L58.566 445.56z" fill="url(#Q)" opacity=".7"/><path d="m405.035 507.977-.602-.104L57.473 447.4l-32.928-41.391.221-.943 88.72-378.4 47.56-15.497.553.134 502.978 122.226 29.929 34.522-.014.768-5.759 308.193-36.941 27.055-165.693-32.238-81.063 36.148zM59.657 443.72l344.862 60.106 81.102-36.166.62.121 164.597 32.025 33.932-24.852 5.708-305.443-28.087-32.397L161.206 15.323l-44.339 14.448-87.985 375.264z" fill="url(#R)" opacity=".6"/><path d="M759.801 387.447V175.23l19.826-18.913 288.978 70.043 23.022 30.13 21.913 201.914-17.783 18.347-314.565-64.261z" fill="url(#S)"/><path d="m1096.431 478.93-1.075-.219-315.238-64.398-21.838-25.567 3.041-2.598 20.946 24.52 312.816 63.904 16.367-16.886-21.751-200.425-22.253-29.124-1.856-.45.943-3.887 3.232.784 23.79 31.136.06.554 22.015 202.847z" fill="url(#T)" opacity=".6"/><path d="M761.801 387.447h-4V174.373l21.236-20.258 1.061.258 286.434 69.427-.941 3.887-285.374-69.169-18.416 17.568z" fill="url(#U)" opacity=".6"/><path d="M772.229 382.464V185.159l18.433-17.584 268.673 65.121 21.404 28.014 20.373 187.725-16.534 17.058-292.46-59.745z" fill="url(#V)" opacity=".7"/><path d="m1085.252 467.671-1.074-.219-293.135-59.882-20.813-24.368V184.303l19.843-18.929 1.061.258 269.361 65.287 22.172 29.021.061.555 20.476 188.658-17.95 18.519zm-292.061-63.745 290.713 59.388 15.118-15.597-20.212-186.236-20.635-27.007-266.924-64.697-17.022 16.239v195.71z" fill="url(#W)" opacity=".6"/><path d="m759.801 480.447 21.913-22.696 314.043 60.653 25.609 32.086 7.044 64.174-21.913 23.479-325.28-56.231-19.851-33.965z" fill="url(#X)"/><path d="m1107.222 640.298-1.066-.185-326.197-56.388-20.319-34.769 3.453-2.018 19.382 33.162 323.297 55.887 20.55-22.016-6.881-62.686-25.248-31.634 3.127-2.496 25.971 32.54 7.207 65.663z" fill="url(#Y)" opacity=".6"/><path d="m759.367 547.994-1.585-68.335 23.246-24.077 1.065.205 314.043 60.652-.758 3.928-312.979-60.447-20.58 21.315 1.546 66.666z" fill="url(#Z)" opacity=".6"/><path d="m773.134 485.33 20.328-21.054 291.324 56.265 23.757 29.765 6.533 59.532-20.327 21.78-301.748-52.163-18.415-31.508z" fill="url(#aa)" opacity=".7"/><path d="m1095.474 633.772-1.065-.185-302.664-52.32-19.146-32.757-1.483-63.969 21.661-22.435 1.064.205 292.049 56.404 24.578 30.795 6.696 61.021-21.69 23.24zm-301.216-56.13 299.767 51.819 18.964-20.318-6.37-58.042-22.936-28.736-289.535-55.92-18.995 19.673 1.421 61.266 17.685 30.259z" fill="url(#ab)" opacity=".6"/><path d="m105.009 427.826-33.927-5.894 5.536-31.081 33.62 6.112-5.228 30.863zm58.169-21.238-32.718-5.948-5.046 30.731 33.01 5.735zm51.536 9.369-31.852-5.791-4.58 30.389 32.13 5.582 4.302-30.181zm50.186 9.124-31.02-5.639-4.137 30.055 31.285 5.435 3.873-29.85zm48.889 8.888-30.22-5.494-3.716 29.727 30.472 5.294zm47.641 8.661-29.451-5.354-3.315 29.406 29.691 5.158z" fill="url(#ac)"/><path d="M101.236 569.845a258.025 258.025 0 0 0 12.513 142.246l48.599 126.008a11.713 11.713 0 0 0 9.568 7.418l585.909 68.418c5.909.69 11.098-3.928 11.098-9.877v-54.756L640.562 672.85 101.236 569.847z" fill="#321450"/><path d="M758.977 916.001c-.46 0-.922-.027-1.384-.081l-585.91-68.418.465-3.973 585.91 68.418a7.92 7.92 0 0 0 6.202-1.956 7.952 7.952 0 0 0 2.663-5.935V849.3h4v54.756c0 3.406-1.459 6.658-4.004 8.923a11.953 11.953 0 0 1-7.942 3.021z" fill="url(#ad)" opacity=".6"/><path d="M171.684 847.502a13.674 13.674 0 0 1-11.202-8.685L111.883 712.81a259.705 259.705 0 0 1-12.609-143.349l3.926.766a255.717 255.717 0 0 0 12.416 141.144l48.599 126.007a9.683 9.683 0 0 0 7.933 6.151l-.463 3.973z" fill="url(#ae)" opacity=".6"/><path d="m101.236 569.845 551.009 88.419a8.008 8.008 0 0 1 5.62 3.823l111.057 187.215-579.524-73.983a13.84 13.84 0 0 1-11.135-8.684l-77.028-196.789z" fill="url(#af)"/><path d="m772.732 851.804-583.587-74.502a15.831 15.831 0 0 1-12.744-9.939l3.725-1.458a11.833 11.833 0 0 0 9.525 7.429l575.462 73.465-108.967-183.691a5.994 5.994 0 0 0-4.218-2.868l.633-3.949a9.985 9.985 0 0 1 7.024 4.776l113.146 190.738z" fill="url(#ag)" opacity=".6"/><path d="M176.401 767.362 98.099 567.315l554.464 88.974-.634 3.949-547.555-87.864 75.752 193.531z" fill="url(#ah)" opacity=".6"/><path d="m213.53 628.267-9.006-21.1 32.154 4.977 9.242 21.023zm-14.362-21.929-32.59-5.045 8.723 21.191 32.833 4.967zm84.033 32.469-9.51-20.933-31.728-4.911 9.281 21.01zm-73.139-6.816-32.885-4.95 8.917 21.663 33.133 4.868zm387.483 54.37-11.593-20.15-28.244-4.372 11.418 20.222 28.42 4.299zm-376.348-28.149-33.186-4.85 9.118 22.151 33.438 4.763zm-10.774 49.596 9.541 23.179 34.065 4.534-9.802-23.081-33.804-4.631zm145.861-57.945-10.022-20.755-30.9-4.783 9.806 20.831zm-36.299-5.491-9.77-20.844-31.31-4.847 9.548 20.92 31.533 4.77zm244.407 36.973-11.388-20.235-28.602-4.427 11.207 20.308 28.782 4.354zm-67.584-10.224-10.96-20.406-29.339-4.542 10.768 20.48 29.531 4.467zm34.008 5.145-11.177-20.32-28.967-4.484 10.991 20.394zm-68.457-10.356-10.736-20.492-29.717-4.6 10.538 20.567zm-70.253-10.628-10.267-20.667-30.499-4.721 10.058 20.743zm35.356 5.349-10.505-20.579-30.104-4.66 10.301 20.655 30.308 4.585zm-194.88 24.391-33.492-4.743 9.326 22.656 33.749 4.651zm428.894 104.729 28.915 3.848-12.804-21.787-28.736-3.937zm-15.282-26.479 28.698 3.955-12.539-21.336-28.521-4.039 12.362 21.421zm-31.242-.041 12.41 21.979 29.298 3.899-12.595-21.89-29.113-3.989zm-34.346-4.706 12.188 22.084 29.688 3.951-12.379-21.994zm21.611-71.457 28.063 4.245-11.792-20.065-27.893-4.318zm-56.414 66.689 11.959 22.19 30.087 4.004-12.156-22.099zm70.772-41.81 28.272 4.154-12.033-20.476-28.1-4.23zm14.656 25.396 28.484 4.057-12.282-20.9-28.309-4.137 12.108 20.98zm-229.396-3.31 10.968 22.621 31.764 4.228-11.191-22.527-31.541-4.321zm-74.974-10.272 10.424 22.841 32.656 4.346-10.662-22.746zm37.745 5.171 10.7 22.73 32.205 4.286-10.931-22.636-31.974-4.381zm-76.017-10.415 10.139 22.953 33.116 4.408-10.384-22.857-32.87-4.503zm221.944 30.407 11.723 22.296 30.494 4.059-11.926-22.205zM249.78 713.2l9.845 23.065 33.584 4.47-10.098-22.969-33.331-4.567zm225.009 30.827 11.479 22.403 30.908 4.114-11.689-22.311zm-36.23-4.964 11.228 22.512 31.332 4.17-11.444-22.419zm-173.797-74.485 9.696 21.949 32.527 4.633-9.933-21.863zm313.701 41.769-11.624-20.654-28.821-4.338 11.441 20.731zm-68.11-10.006-11.19-20.835-29.572-4.451 10.995 20.913 29.766 4.373zm34.275 5.035-11.41-20.744-29.193-4.394 11.222 20.822 29.382 4.317zm18.971 26.333 29.229 4.163-11.868-21.087-29.043-4.244zm-45.942-26.174 11.46 21.263 29.614 4.218-11.651-21.182-29.422-4.3zm-112.858-20.701-10.487-21.11-30.753-4.629 10.274 21.19zm35.648 5.237-10.729-21.017-30.352-4.569 10.522 21.097 30.558 4.489zm35.181 5.168-10.963-20.926-29.957-4.509 10.762 21.004 30.158 4.43zm7.321 5.223 11.23 21.359 30.005 4.274-11.427-21.277zm-143.501-20.97 10.239 21.75 31.651 4.508-10.462-21.665zm-37.091-5.42 9.971 21.849 32.085 4.57-10.201-21.764zm66.318 5.455-10.239-21.203-31.162-4.691 10.019 21.283 31.381 4.61zm7.367 5.313 10.498 21.651 31.228 4.448-10.714-21.567zm71.742 10.484 10.994 21.456 30.404 4.33-11.197-21.373zm-35.633-5.207 10.75 21.553 30.812 4.389-10.959-21.47zm153.959 46.142 11.931 21.619 29.457 4.06-12.119-21.533-29.269-4.145zm-34.53-4.89 11.705 21.719 29.849 4.114-11.899-21.633zm-106.368-15.065 10.985 22.025 31.07 4.282-11.198-21.936-30.857-4.37zm35.929 5.089 11.232 21.922 30.654 4.225-11.439-21.835-30.448-4.312zm35.453 5.021 11.472 21.82 30.248 4.169-11.673-21.733-30.048-4.256zm101.04 10.143 28.853 4.11-12.078-20.993-28.673-4.19 11.898 21.074zm14.707 26.048 29.074 4.007-12.332-21.435-28.892-4.092 12.15 21.519zm-29.109-51.557 28.635 4.207-11.832-20.565-28.457-4.283zm-306.689-15.8 9.914 22.443 32.819 4.523-10.155-22.352zm112.256 15.899 10.729 22.128 31.494 4.341-10.949-22.039-31.274-4.429zm-140.892-69.459-32.441-4.883 9.205 21.567 32.681 4.801-9.446-21.485zm-9.82 48.114 9.625 22.549 33.278 4.587-9.873-22.458-33.029-4.678zm21.297-22.009-32.733-4.783 9.412 22.05 32.977 4.697-9.656-21.963zm35.58.906-9.718-21.391-32.007-4.818 9.485 21.472 32.24 4.736zm56.927 37.221 10.466 22.232 31.926 4.4-10.692-22.143-31.699-4.49zm-37.415-5.299 10.194 22.337 32.368 4.461-10.428-22.247zm17.593-26.471-9.982-21.296-31.58-4.753 9.756 21.377 31.807 4.673zm-149.586-17.595-16.137-2.358 8.952 22.208 16.261 2.316zm512.664 141.677 13.769 1.833-12.917-21.73-13.685-1.875 12.833 21.773zm-355.618-42.717 11.039 24.189 252.756 32.376-12.859-23.378-250.935-33.187zm309.969-34.732 13.467 1.978-12.143-20.427-13.386-2.015zm-348.587 29.625 10.739 24.311 33.426 4.282-10.997-24.206zm322.166-74.45 11.82 20.053 13.369 2.022-11.9-20.019-13.289-2.057zm-418.286 35.079-16.441-2.253 9.369 23.242 16.57 2.205-9.497-23.195zm-43.642-106.583-15.843-2.452 8.562 21.241 15.963 2.415zm38.585 132.573 9.927 24.628 16.733 2.143-10.063-24.576-16.598-2.195zm62.011 8.201 10.429 24.434 33.905 4.343-10.696-24.328-33.639-4.449zm-39.727-5.254 10.109 24.558 34.396 4.406-10.384-24.452-34.121-4.513zm-50.32-109.757-15.989-2.407 8.754 21.716 16.111 2.367-8.876-21.677zm423.718 159.14 12.893 23.362 29.929 3.834-13.093-23.264zm34.616 4.578 13.126 23.248 29.532 3.783-13.32-23.151zM193.511 679.488l-16.288-2.307 9.157 22.716 16.414 2.262-9.283-22.672zm470.681 114.964 13.351 23.135 29.142 3.733-13.539-23.038-28.954-3.829zm15.421-26.576 13.667 1.884-12.651-21.282-13.584-1.924 12.568 21.323zm31.862 54.057 13.875 1.777-13.658-22.976-13.787-1.823 13.57 23.023zM664.4 742.065l13.566 1.932-12.393-20.848-13.484-1.97z" fill="url(#ai)"/><path d="M526.186 509.425c.214 5.654-7.179 8.664-16.161 6.853-8.616-1.737-15.645-7.328-16.014-12.601-.374-5.329 6.163-8.631 14.928-7.271 9.144 1.418 17.03 7.299 17.247 13.018z" fill="url(#aj)"/><path d="M139.775 807.704h70.827v4h-70.827z" fill="url(#ak)" opacity=".6" transform="matrix(.19921401 -.97995601 .97995601 .19921401 -653.186 820.077)"/><path d="M1053.539 864.021c-7.831 0-16.369-.608-25.531-1.846-65.328-8.825-138.605-46.518-163.347-84.023-11.47-17.389-8.793-28.983-4.528-35.647 10.037-15.685 39.725-21.445 79.42-15.414 63.567 9.662 133.164 45.623 158.443 81.868 12.478 17.892 10.056 29.906 5.826 36.835-7.278 11.924-25.092 18.227-50.283 18.228zM910.283 728.703c-23.336 0-40.109 5.532-46.781 15.957-5.199 8.126-3.644 18.945 4.499 31.289 24.188 36.669 96.208 73.571 160.542 82.262 36.45 4.927 63.318-.496 71.865-14.501 5.175-8.478 3.206-19.703-5.693-32.462-11.805-16.927-34.402-34.555-63.63-49.636-29.342-15.141-62.062-25.996-92.134-30.566-10.346-1.573-19.963-2.343-28.668-2.343z" fill="url(#al)" opacity=".6"/><path d="M892.57 863.822h3.999v67.689h-3.999z" fill="url(#am)" opacity=".6" transform="matrix(.99868648 -.05123787 .05123787 .99868648 -44.826 47.022)"/></svg></g><g transform="translate(608.0 822.0) rotate(0.0 478.0 361.0) scale(2.0027527375493093 2.0009589082856882)"><svg width="477.343" height="360.827" viewBox="0 0 477.343 360.827"><path d="M460.502 206.649 43.848 115.113c-9.077-1.994-15.418-9.244-14.143-16.162l7.468-40.518c1.24-6.725 9.463-10.492 18.349-8.443l408.411 94.18c7.733 1.783 13.723 8.428 13.396 14.867l-1.968 38.755c-.336 6.61-6.98 10.588-14.86 8.857z" fill="#d1f9ff"/><path d="M98.496 93.215c-1.071 6.524-8.851 10.289-17.393 8.383-8.566-1.912-14.603-8.789-13.466-15.332 1.132-6.518 8.956-10.214 17.456-8.283s14.47 8.733 13.403 15.232zm74.383 16.751c-.916 6.477-8.403 10.241-16.739 8.381-8.359-1.866-14.357-8.667-13.378-15.163.975-6.471 8.505-10.167 16.802-8.283 8.274 1.88 14.228 8.612 13.316 15.065zm72.609 16.351c-.768 6.431-7.973 10.193-16.111 8.376-8.16-1.821-14.118-8.548-13.29-14.997.824-6.425 8.073-10.121 16.173-8.28 8.078 1.835 13.993 8.495 13.228 14.901zm70.897 15.966c-.626 6.385-7.562 10.143-15.508 8.37-7.967-1.778-13.886-8.432-13.203-14.835.681-6.379 7.659-10.073 15.569-8.276 7.889 1.792 13.765 8.381 13.141 14.742zm69.246 15.593c-.491 6.339-7.167 10.094-14.929 8.361-7.782-1.737-13.661-8.319-13.115-14.677.544-6.334 7.262-10.025 14.989-8.27 7.707 1.751 13.544 8.269 13.055 14.585z" fill="#005679"/><path d="M452.052 360.512 14.968 276.205c-9.554-1.843-16.181-9.518-14.782-17.109l8.189-44.43c1.358-7.37 10.049-11.767 19.391-9.854l428.024 87.631c8.08 1.654 14.325 8.654 13.969 15.664l-2.144 42.213c-.366 7.204-7.325 11.781-15.564 10.191z" fill="#d1f9ff"/><g fill="#3386ff" opacity=".9"><path d="m102.611 41.02-3.177-.744-.402 2.401-3.183-.744-.405 2.406-3.188-.744-.408 2.411-3.195-.744-.411 2.415-16.037-3.73.424-2.418-3.215-.749.426-2.415-3.215-.75.428-2.413-3.216-.752.43-2.409-3.217-.754 4.715-26.285 9.557 2.281-4.207 23.857 3.205.752-.422 2.404 3.204.75-.419 2.406 9.599 2.245.412-2.404 3.191.747.409-2.401 3.185.747 4.031-23.81 9.459 2.257-4.355 26.187zm47.402-11.031-1.082 7.092-9.361-2.215.736-4.736-15.643-3.714-1.142 7.12 18.806 4.443-.367 2.376 3.126.737-.365 2.379 3.124.735-1.821 11.94-3.136-.732-.368 2.399-3.143-.732-.371 2.403-22.105-5.142.389-2.408-3.169-.738.391-2.406-3.169-.74 1.176-7.197 9.475 2.223-.768 4.79 15.753 3.684 1.115-7.17-18.868-4.435.385-2.388-3.154-.743.387-2.385-3.154-.744 1.94-11.875 3.142.747.384-2.364 3.136.747.381-2.36 21.848 5.214-.364 2.356 3.111.741-.362 2.358 3.109.74zm42.887 12.63-24.636-5.85-1.04 7.091 18.539 4.38-1.002 7.109-18.582-4.368-1.049 7.151 24.808 5.801-.996 7.166-27.987-6.51.354-2.398-3.123-.728.356-2.396-3.124-.729 3.91-26.133 3.098.737.35-2.355 3.092.737.347-2.351 27.666 6.602-.979 7.044zm42.934 7.783-2.071 16.464-3.039-.714-.3 2.366-3.045-.714-.303 2.37 3.047.714-.301 2.372 3.045.712-.898 7.137-9.169-2.133.613-4.765-3.058-.714.308-2.378-3.059-.715.31-2.375-9.188-2.152-1.27 9.53-9.243-2.15 4.832-35.494 27.334 6.523-.298 2.337 3.024.721-.296 2.34 3.023.719zm-9.38.184-15.205-3.611-1.571 11.788 15.263 3.594zm47.944 40.391-9.04-2.103 1.64-14.197-3.006-.707.274-2.355-3.007-.708.276-2.353-3.008-.709.278-2.35-3.008-.711.28-2.347-3.009-.712-2.839 23.63-9.113-2.12 4.346-35.35 9.011 2.15-.28 2.332 3 .715-.278 2.334 2.999.713-.276 2.336 2.999.712-.275 2.339 2.998.711-.273 2.342 2.997.709 1.349-11.673 8.939 2.133-3.974 35.238zm44.88-20.727-3.047 30.458-8.914-2.073.97-9.439-14.874-3.484-1.014 9.453-8.986-2.09 3.362-30.556 2.97.706.254-2.327 2.965.706.251-2.323 20.653 4.929-.236 2.318 2.941.701-.234 2.321 2.939.699zm-25.108 8.407 14.84 3.494 1.2-11.676-14.786-3.511-1.255 11.693zm74.995 34.364-8.757-2.037 2.027-23.377-2.904-.687-.204 2.324-2.908-.687-.206 2.328-2.913-.687-.208 2.332-2.918-.687-.211 2.336-2.923-.687.213-2.336-2.924-.688.215-2.334-2.925-.69.217-2.331-2.926-.691.218-2.329-2.927-.693-2.219 23.438-8.861-2.061 3.414-35.065 8.764 2.092-.219 2.313 2.918.695-.217 2.316 2.917.694-.215 2.317 2.916.693-.214 2.321 2.916.691-.212 2.323 2.915.69.21-2.323 2.91.69.207-2.319 2.905.69.205-2.314 2.899.69.202-2.311 2.895.69.2-2.307 8.662 2.067-2.935 34.914zm42.528-18.449-22.889-5.435-.547 6.942 17.221 4.068-.512 6.959-17.258-4.056-.552 6.999 23.037 5.387-.504 7.012-25.985-6.044.187-2.347-2.9-.676.189-2.344-2.9-.677 2.083-25.58 2.877.684.186-2.306 2.873.684.183-2.302 25.707 6.135zM73.707 173.487l-2.196 13.045-3.338-.699-.444 2.622-3.345-.7-.447 2.627-3.352-.699-.451 2.631-3.358-.699-.454 2.636-13.479-2.801-.933 5.292-10.164-2.103 7.057-39.339 23.372 4.989-.446 2.589 3.327.709-.444 2.592 3.327.707-.442 2.594 3.326.706-.44 2.598 3.324.704zm-11.773 8.325 1.342-7.835-3.338-.705.449-2.605-3.339-.707.451-2.602-10.031-2.128-3.229 18.312 10.09 2.11.455-2.625 3.353.703.452-2.62 3.347.703zm58.748-3.714-5.23 33.86-9.925-2.054 1.653-10.499-16.56-3.456-1.707 10.517-10.011-2.071 5.618-33.985 3.305.703.425-2.586 3.299.703.422-2.581 22.975 4.905-.403 2.575 3.271.697-.401 2.578 3.269.695zm-28.789 10.004 16.519 3.469 2.043-12.978-16.452-3.491-2.11 12.999zm74.21-.347-1.088 7.719-9.699-2.049.741-5.155-16.209-3.439-1.152 7.752 19.487 4.109-.369 2.586 3.238.681-.367 2.589 3.237.68-1.832 13-3.25-.675-.371 2.613-3.257-.675-.374 2.618-22.913-4.741.393-2.624-3.285-.681.395-2.621-3.286-.683 1.188-7.84 9.821 2.054-.775 5.217 16.327 3.4 1.123-7.808-19.554-4.098.389-2.6-3.269-.686.391-2.597-3.27-.688 1.96-12.932 3.256.692.388-2.574 3.25.692.384-2.569 22.636 4.832-.366 2.563 3.223.687-.364 2.566 3.221.685zm44.753 9.514-.981 7.683-9.556-2.019.669-5.131-15.971-3.388-1.043 7.716 19.2 4.049-.333 2.574 3.191.671-.331 2.577 3.189.67-1.651 12.939-3.202-.665-.334 2.6-3.209-.665-.337 2.605-22.573-4.671.356-2.611-3.236-.671.358-2.608-3.237-.673 1.077-7.803 9.676 2.023-.702 5.193 16.086 3.35 1.014-7.771-19.266-4.037.352-2.588-3.22-.676.354-2.585-3.221-.678 1.777-12.872 3.208.682.351-2.562 3.202.682.348-2.558 22.305 4.761-.33 2.552 3.176.677-.328 2.555 3.174.675zm65.995 42.806-3.128-.65-.279 2.581-3.135-.65-.282 2.586-15.738-3.256.294-2.59-3.155-.654.297-2.587-3.155-.656.299-2.584-3.157-.657-.301 2.585-3.162-.657-.304 2.59-3.168-.657-.307 2.595-15.903-3.291.32-2.599-3.188-.661.322-2.596-3.189-.663 4.17-33.41 9.459 2.019L226.704 227l9.52 1.982.308-2.583 3.164.66.305-2.579 3.158.66 3.002-25.576 9.38 2.002-2.928 25.55 3.145.658-.293 2.575 3.144.656-.291 2.577 9.42 1.962 3.373-30.654 9.303 1.986-3.562 33.2zm46.123-18.969-2.651 28.002-3.083-.641-.246 2.569-3.09-.641-.248 2.574-21.734-4.497.265-2.58-3.116-.646.267-2.577-3.116-.648 2.939-28.105 3.09.657.262-2.532 3.084.657.26-2.528 21.485 4.586-.243 2.522 3.059.652-.241 2.525 3.057.65zm-9.43.577-15.382-3.264-2.34 22.972 15.489 3.225 2.233-22.934zm51.917 8.456-1.456 17.686-3.03-.635-.211 2.542-3.036-.635-.214 2.547 3.038.634-.212 2.549 3.037.632-.631 7.668-9.142-1.892.435-5.121-3.049-.634.219-2.556-3.05-.635.221-2.552-9.162-1.912-.915 10.243-9.218-1.907 3.51-38.147 27.257 5.819-.211 2.51 3.015.642-.209 2.513zm-9.266.593-15.162-3.217-1.132 12.667 15.22 3.196z"/></g><g fill="#7afcb5" opacity=".9"><path d="m97.611 39.02-3.177-.744-.402 2.401-3.183-.744-.405 2.406-3.188-.744-.408 2.411-3.195-.744-.411 2.415-16.037-3.73.424-2.418-3.215-.749.426-2.415-3.215-.75.428-2.413-3.216-.752.43-2.409-3.217-.754 4.715-26.285 9.557 2.281-4.207 23.857 3.205.752-.422 2.404 3.204.75-.419 2.406 9.599 2.245.412-2.404 3.191.747.409-2.401 3.185.747 4.031-23.81 9.459 2.257-4.355 26.187zm47.402-11.031-1.082 7.092-9.361-2.215.736-4.736-15.643-3.714-1.142 7.12 18.806 4.443-.367 2.376 3.126.737-.365 2.379 3.124.735-1.821 11.94-3.136-.732-.368 2.399-3.143-.732-.371 2.403-22.105-5.142.389-2.408-3.169-.738.391-2.406-3.169-.74 1.176-7.197 9.475 2.223-.768 4.79 15.753 3.684 1.115-7.17-18.868-4.435.385-2.388-3.154-.743.387-2.385-3.154-.744 1.94-11.875 3.142.747.384-2.364 3.136.747.381-2.36 21.848 5.214-.364 2.356 3.111.741-.362 2.358 3.109.74zm42.887 12.63-24.636-5.85-1.04 7.091 18.539 4.38-1.002 7.109-18.582-4.368-1.049 7.151 24.808 5.801-.996 7.166-27.987-6.51.354-2.398-3.123-.728.356-2.396-3.124-.729 3.91-26.133 3.098.737.35-2.355 3.092.737.347-2.351 27.666 6.602-.979 7.044zm42.934 7.783-2.071 16.464-3.039-.714-.3 2.366-3.045-.714-.303 2.37 3.047.714-.301 2.372 3.045.712-.898 7.137-9.169-2.133.613-4.765-3.058-.714.308-2.378-3.059-.715.31-2.375-9.188-2.152-1.27 9.53-9.243-2.15 4.832-35.494 27.334 6.523-.298 2.337 3.024.721-.296 2.34 3.023.719zm-9.38.184-15.205-3.611-1.571 11.788 15.263 3.594zm47.944 40.391-9.04-2.103 1.64-14.197-3.006-.707.274-2.355-3.007-.708.276-2.353-3.008-.709.278-2.35-3.008-.711.28-2.347-3.009-.712-2.839 23.63-9.113-2.12 4.346-35.35 9.011 2.15-.28 2.332 3 .715-.278 2.334 2.999.713-.276 2.336 2.999.712-.275 2.339 2.998.711-.273 2.342 2.997.709 1.349-11.673 8.939 2.133-3.974 35.238zm44.88-20.727-3.047 30.458-8.914-2.073.97-9.439-14.874-3.484-1.014 9.453-8.986-2.09 3.362-30.556 2.97.706.254-2.327 2.965.706.251-2.323 20.653 4.929-.236 2.318 2.941.701-.234 2.321 2.939.699zm-25.108 8.407 14.84 3.494 1.2-11.676-14.786-3.511-1.255 11.693zm74.995 34.364-8.757-2.037 2.027-23.377-2.904-.687-.204 2.324-2.908-.687-.206 2.328-2.913-.687-.208 2.332-2.918-.687-.211 2.336-2.923-.687.213-2.336-2.924-.688.215-2.334-2.925-.69.217-2.331-2.926-.691.218-2.329-2.927-.693-2.219 23.438-8.861-2.061 3.414-35.065 8.764 2.092-.219 2.313 2.918.695-.217 2.316 2.917.694-.215 2.317 2.916.693-.214 2.321 2.916.691-.212 2.323 2.915.69.21-2.323 2.91.69.207-2.319 2.905.69.205-2.314 2.899.69.202-2.311 2.895.69.2-2.307 8.662 2.067-2.935 34.914zm42.528-18.449-22.889-5.435-.547 6.942 17.221 4.068-.512 6.959-17.258-4.056-.552 6.999 23.037 5.387-.504 7.012-25.985-6.044.187-2.347-2.9-.676.189-2.344-2.9-.677 2.083-25.58 2.877.684.186-2.306 2.873.684.183-2.302 25.707 6.135zM68.707 171.487l-2.196 13.045-3.338-.699-.444 2.622-3.345-.7-.447 2.627-3.352-.699-.451 2.631-3.358-.699-.454 2.636-13.479-2.801-.933 5.292-10.164-2.103 7.057-39.339 23.372 4.989-.446 2.589 3.327.709-.444 2.592 3.327.707-.442 2.594 3.326.706-.44 2.598 3.324.704zm-11.773 8.325 1.342-7.835-3.338-.705.449-2.605-3.339-.707.451-2.602-10.031-2.128-3.229 18.312 10.09 2.11.455-2.625 3.353.703.452-2.62 3.347.703zm58.748-3.714-5.23 33.86-9.925-2.054 1.653-10.499-16.56-3.456-1.707 10.517-10.011-2.071 5.618-33.985 3.305.703.425-2.586 3.299.703.422-2.581 22.975 4.905-.403 2.575 3.271.697-.401 2.578 3.269.695zm-28.789 10.004 16.519 3.469 2.043-12.978-16.452-3.491-2.11 12.999zm74.21-.347-1.088 7.719-9.699-2.049.741-5.155-16.209-3.439-1.152 7.752 19.487 4.109-.369 2.586 3.238.681-.367 2.589 3.237.68-1.832 13-3.25-.675-.371 2.613-3.257-.675-.374 2.618-22.913-4.741.393-2.624-3.285-.681.395-2.621-3.286-.683 1.188-7.84 9.821 2.054-.775 5.217 16.327 3.4 1.123-7.808-19.554-4.098.389-2.6-3.269-.686.391-2.597-3.27-.688 1.96-12.932 3.256.692.388-2.574 3.25.692.384-2.569 22.636 4.832-.366 2.563 3.223.687-.364 2.566 3.221.685zm44.753 9.514-.981 7.683-9.556-2.019.669-5.131-15.971-3.388-1.043 7.716 19.2 4.049-.333 2.574 3.191.671-.331 2.577 3.189.67-1.651 12.939-3.202-.665-.334 2.6-3.209-.665-.337 2.605-22.573-4.671.356-2.611-3.236-.671.358-2.608-3.237-.673 1.077-7.803 9.676 2.023-.702 5.193 16.086 3.35 1.014-7.771-19.266-4.037.352-2.588-3.22-.676.354-2.585-3.221-.678 1.777-12.872 3.208.682.351-2.562 3.202.682.348-2.558 22.305 4.761-.33 2.552 3.176.677-.328 2.555 3.174.675zm65.995 42.806-3.128-.65-.279 2.581-3.135-.65-.282 2.586-15.738-3.256.294-2.59-3.155-.654.297-2.587-3.155-.656.299-2.584-3.157-.657-.301 2.585-3.162-.657-.304 2.59-3.168-.657-.307 2.595-15.903-3.291.32-2.599-3.188-.661.322-2.596-3.189-.663 4.17-33.41 9.459 2.019L221.704 225l9.52 1.982.308-2.583 3.164.66.305-2.579 3.158.66 3.002-25.576 9.38 2.002-2.928 25.55 3.145.658-.293 2.575 3.144.656-.291 2.577 9.42 1.962 3.373-30.654 9.303 1.986-3.562 33.2zm46.123-18.969-2.651 28.002-3.083-.641-.246 2.569-3.09-.641-.248 2.574-21.734-4.497.265-2.58-3.116-.646.267-2.577-3.116-.648 2.939-28.105 3.09.657.262-2.532 3.084.657.26-2.528 21.485 4.586-.243 2.522 3.059.652-.241 2.525 3.057.65zm-9.43.577-15.382-3.264-2.34 22.972 15.489 3.225 2.233-22.934zm51.917 8.456-1.456 17.686-3.03-.635-.211 2.542-3.036-.635-.214 2.547 3.038.634-.212 2.549 3.037.632-.631 7.668-9.142-1.892.435-5.121-3.049-.634.219-2.556-3.05-.635.221-2.552-9.162-1.912-.915 10.243-9.218-1.907 3.51-38.147 27.257 5.819-.211 2.51 3.015.642-.209 2.513zm-9.266.593-15.162-3.217-1.132 12.667 15.22 3.196z"/></g><g fill="#ff719d" opacity=".9"><path d="m102.611 36.02-3.177-.744-.402 2.401-3.183-.744-.405 2.406-3.188-.744-.408 2.411-3.195-.744-.411 2.415-16.037-3.73.424-2.418-3.215-.749.426-2.415-3.215-.75.428-2.413-3.216-.752.43-2.409-3.217-.754L65.764 0l9.557 2.281-4.207 23.857 3.205.752-.422 2.404 3.204.75-.419 2.406 9.599 2.245.412-2.404 3.191.747.409-2.401 3.185.747 4.031-23.81 9.459 2.257-4.355 26.187zm47.402-11.031-1.082 7.092-9.361-2.215.736-4.736-15.643-3.714-1.142 7.12 18.806 4.443-.367 2.376 3.126.737-.365 2.379 3.124.735-1.821 11.94-3.136-.732-.368 2.399-3.143-.732-.371 2.403-22.105-5.142.389-2.408-3.169-.738.391-2.406-3.169-.74 1.176-7.197 9.475 2.223-.768 4.79 15.753 3.684 1.115-7.17-18.868-4.435.385-2.388-3.154-.743.387-2.385-3.154-.744 1.94-11.875 3.142.747.384-2.364 3.136.747.381-2.36 21.848 5.214-.364 2.356 3.111.741-.362 2.358 3.109.74zm42.887 12.63-24.636-5.85-1.04 7.091 18.539 4.38-1.002 7.109-18.582-4.368-1.049 7.151 24.808 5.801-.996 7.166-27.987-6.51.354-2.398-3.123-.728.356-2.396-3.124-.729 3.91-26.133 3.098.737.35-2.355 3.092.737.347-2.351 27.666 6.602-.979 7.044zm42.934 7.783-2.071 16.464-3.039-.714-.3 2.366-3.045-.714-.303 2.37 3.047.714-.301 2.372 3.045.712-.898 7.137-9.169-2.133.613-4.765-3.058-.714.308-2.378-3.059-.715.31-2.375-9.188-2.152-1.27 9.53-9.243-2.15 4.832-35.494 27.334 6.523-.298 2.337 3.024.721-.296 2.34 3.023.719zm-9.38.184-15.205-3.611-1.571 11.788 15.263 3.594zm47.944 40.391-9.04-2.103 1.64-14.197-3.006-.707.274-2.355-3.007-.708.276-2.353-3.008-.709.278-2.35-3.008-.711.28-2.347-3.009-.712-2.839 23.63-9.113-2.12 4.346-35.35 9.011 2.15-.28 2.332 3 .715-.278 2.334 2.999.713-.276 2.336 2.999.712-.275 2.339 2.998.711-.273 2.342 2.997.709 1.349-11.673 8.939 2.133-3.974 35.238zm44.88-20.727-3.047 30.458-8.914-2.073.97-9.439-14.874-3.484-1.014 9.453-8.986-2.09 3.362-30.556 2.97.706.254-2.327 2.965.706.251-2.323 20.653 4.929-.236 2.318 2.941.701-.234 2.321 2.939.699zm-25.108 8.407 14.84 3.494 1.2-11.676-14.786-3.511-1.255 11.693zm74.995 34.364-8.757-2.037 2.027-23.377-2.904-.687-.204 2.324-2.908-.687-.206 2.328-2.913-.687-.208 2.332-2.918-.687-.211 2.336-2.923-.687.213-2.336-2.924-.688.215-2.334-2.925-.69.217-2.331-2.926-.691.218-2.329-2.927-.693-2.219 23.438-8.861-2.061 3.414-35.065 8.764 2.092-.219 2.313 2.918.695-.217 2.316 2.917.694-.215 2.317 2.916.693-.214 2.321 2.916.691-.212 2.323 2.915.69.21-2.323 2.91.69.207-2.319 2.905.69.205-2.314 2.899.69.202-2.311 2.895.69.2-2.307 8.662 2.067-2.935 34.914zm42.528-18.449-22.889-5.435-.547 6.942 17.221 4.068-.512 6.959-17.258-4.056-.552 6.999 23.037 5.387-.504 7.012-25.985-6.044.187-2.347-2.9-.676.189-2.344-2.9-.677 2.083-25.58 2.877.684.186-2.306 2.873.684.183-2.302 25.707 6.135zM73.707 168.487l-2.196 13.045-3.338-.699-.444 2.622-3.345-.7-.447 2.627-3.352-.699-.451 2.631-3.358-.699-.454 2.636-13.479-2.801-.933 5.292-10.164-2.103 7.057-39.339 23.372 4.989-.446 2.589 3.327.709-.444 2.592 3.327.707-.442 2.594 3.326.706-.44 2.598 3.324.704zm-11.773 8.325 1.342-7.835-3.338-.705.449-2.605-3.339-.707.451-2.602-10.031-2.128-3.229 18.312 10.09 2.11.455-2.625 3.353.703.452-2.62 3.347.703zm58.748-3.714-5.23 33.86-9.925-2.054 1.653-10.499-16.56-3.456-1.707 10.517-10.011-2.071 5.618-33.985 3.305.703.425-2.586 3.299.703.422-2.581 22.975 4.905-.403 2.575 3.271.697-.401 2.578 3.269.695zm-28.789 10.004 16.519 3.469 2.043-12.978-16.452-3.491-2.11 12.999zm74.21-.347-1.088 7.719-9.699-2.049.741-5.155-16.209-3.439-1.152 7.752 19.487 4.109-.369 2.586 3.238.681-.367 2.589 3.237.68-1.832 13-3.25-.675-.371 2.613-3.257-.675-.374 2.618-22.913-4.741.393-2.624-3.285-.681.395-2.621-3.286-.683 1.188-7.84 9.821 2.054-.775 5.217 16.327 3.4 1.123-7.808-19.554-4.098.389-2.6-3.269-.686.391-2.597-3.27-.688 1.96-12.932 3.256.692.388-2.574 3.25.692.384-2.569 22.636 4.832-.366 2.563 3.223.687-.364 2.566 3.221.685zm44.753 9.514-.981 7.683-9.556-2.019.669-5.131-15.971-3.388-1.043 7.716 19.2 4.049-.333 2.574 3.191.671-.331 2.577 3.189.67-1.651 12.939-3.202-.665-.334 2.6-3.209-.665-.337 2.605-22.573-4.671.356-2.611-3.236-.671.358-2.608-3.237-.673 1.077-7.803 9.676 2.023-.702 5.193 16.086 3.35 1.014-7.771-19.266-4.037.352-2.588-3.22-.676.354-2.585-3.221-.678 1.777-12.872 3.208.682.351-2.562 3.202.682.348-2.558 22.305 4.761-.33 2.552 3.176.677-.328 2.555 3.174.675zm65.995 42.806-3.128-.65-.279 2.581-3.135-.65-.282 2.586-15.738-3.256.294-2.59-3.155-.654.297-2.587-3.155-.656.299-2.584-3.157-.657-.301 2.585-3.162-.657-.304 2.59-3.168-.657-.307 2.595-15.903-3.291.32-2.599-3.188-.661.322-2.596-3.189-.663 4.17-33.41 9.459 2.019L226.704 222l9.52 1.982.308-2.583 3.164.66.305-2.579 3.158.66 3.002-25.576 9.38 2.002-2.928 25.55 3.145.658-.293 2.575 3.144.656-.291 2.577 9.42 1.962 3.373-30.654 9.303 1.986-3.562 33.2zm46.123-18.969-2.651 28.002-3.083-.641-.246 2.569-3.09-.641-.248 2.574-21.734-4.497.265-2.58-3.116-.646.267-2.577-3.116-.648 2.939-28.105 3.09.657.262-2.532 3.084.657.26-2.528 21.485 4.586-.243 2.522 3.059.652-.241 2.525 3.057.65zm-9.43.577-15.382-3.264-2.34 22.972 15.489 3.225 2.233-22.934zm51.917 8.456-1.456 17.686-3.03-.635-.211 2.542-3.036-.635-.214 2.547 3.038.634-.212 2.549 3.037.632-.631 7.668-9.142-1.892.435-5.121-3.049-.634.219-2.556-3.05-.635.221-2.552-9.162-1.912-.915 10.243-9.218-1.907 3.51-38.147 27.257 5.819-.211 2.51 3.015.642-.209 2.513zm-9.266.593-15.162-3.217-1.132 12.667 15.22 3.196z"/></g><path d="m100.611 38.02-3.177-.744-.402 2.401-3.183-.744-.405 2.406-3.188-.744-.408 2.411-3.195-.744-.411 2.415-16.037-3.73.424-2.418-3.215-.749.426-2.415-3.215-.75.428-2.413-3.216-.752.43-2.409-3.217-.754 4.715-26.285 9.557 2.281-4.207 23.857 3.205.752-.422 2.404 3.204.75-.419 2.406 9.599 2.245.412-2.404 3.191.747.409-2.401 3.185.747 4.031-23.81 9.459 2.257-4.355 26.187zm47.402-11.031-1.082 7.092-9.361-2.215.736-4.736-15.643-3.714-1.142 7.12 18.806 4.443-.367 2.376 3.126.737-.365 2.379 3.124.735-1.821 11.94-3.136-.732-.368 2.399-3.143-.732-.371 2.403-22.105-5.142.389-2.408-3.169-.738.391-2.406-3.169-.74 1.176-7.197 9.475 2.223-.768 4.79 15.753 3.684 1.115-7.17-18.868-4.435.385-2.388-3.154-.743.387-2.385-3.154-.744 1.94-11.875 3.142.747.384-2.364 3.136.747.381-2.36 21.848 5.214-.364 2.356 3.111.741-.362 2.358 3.109.74zm42.887 12.63-24.636-5.85-1.04 7.091 18.539 4.38-1.002 7.109-18.582-4.368-1.049 7.151 24.808 5.801-.996 7.166-27.987-6.51.354-2.398-3.123-.728.356-2.396-3.124-.729 3.91-26.133 3.098.737.35-2.355 3.092.737.347-2.351 27.666 6.602-.979 7.044zm42.934 7.783-2.071 16.464-3.039-.714-.3 2.366-3.045-.714-.303 2.37 3.047.714-.301 2.372 3.045.712-.898 7.137-9.169-2.133.613-4.765-3.058-.714.308-2.378-3.059-.715.31-2.375-9.188-2.152-1.27 9.53-9.243-2.15 4.832-35.494 27.334 6.523-.298 2.337 3.024.721-.296 2.34 3.023.719zm-9.38.184-15.205-3.611-1.571 11.788 15.263 3.594zm47.944 40.391-9.04-2.103 1.64-14.197-3.006-.707.274-2.355-3.007-.708.276-2.353-3.008-.709.278-2.35-3.008-.711.28-2.347-3.009-.712-2.839 23.63-9.113-2.12 4.346-35.35 9.011 2.15-.28 2.332 3 .715-.278 2.334 2.999.713-.276 2.336 2.999.712-.275 2.339 2.998.711-.273 2.342 2.997.709 1.349-11.673 8.939 2.133-3.974 35.238zm44.88-20.727-3.047 30.458-8.914-2.073.97-9.439-14.874-3.484-1.014 9.453-8.986-2.09 3.362-30.556 2.97.706.254-2.327 2.965.706.251-2.323 20.653 4.929-.236 2.318 2.941.701-.234 2.321 2.939.699zm-25.108 8.407 14.84 3.494 1.2-11.676-14.786-3.511-1.255 11.693zm74.995 34.364-8.757-2.037 2.027-23.377-2.904-.687-.204 2.324-2.908-.687-.206 2.328-2.913-.687-.208 2.332-2.918-.687-.211 2.336-2.923-.687.213-2.336-2.924-.688.215-2.334-2.925-.69.217-2.331-2.926-.691.218-2.329-2.927-.693-2.219 23.438-8.861-2.061 3.414-35.065 8.764 2.092-.219 2.313 2.918.695-.217 2.316 2.917.694-.215 2.317 2.916.693-.214 2.321 2.916.691-.212 2.323 2.915.69.21-2.323 2.91.69.207-2.319 2.905.69.205-2.314 2.899.69.202-2.311 2.895.69.2-2.307 8.662 2.067-2.935 34.914zm42.528-18.449-22.889-5.435-.547 6.942 17.221 4.068-.512 6.959-17.258-4.056-.552 6.999 23.037 5.387-.504 7.012-25.985-6.044.187-2.347-2.9-.676.189-2.344-2.9-.677 2.083-25.58 2.877.684.186-2.306 2.873.684.183-2.302 25.707 6.135zM71.707 170.487l-2.196 13.045-3.338-.699-.444 2.622-3.345-.7-.447 2.627-3.352-.699-.451 2.631-3.358-.699-.454 2.636-13.479-2.801-.933 5.292-10.164-2.103 7.057-39.339 23.372 4.989-.446 2.589 3.327.709-.444 2.592 3.327.707-.442 2.594 3.326.706-.44 2.598 3.324.704zm-11.773 8.325 1.342-7.835-3.338-.705.449-2.605-3.339-.707.451-2.602-10.031-2.128-3.229 18.312 10.09 2.11.455-2.625 3.353.703.452-2.62 3.347.703zm58.748-3.714-5.23 33.86-9.925-2.054 1.653-10.499-16.56-3.456-1.707 10.517-10.011-2.071 5.618-33.985 3.305.703.425-2.586 3.299.703.422-2.581 22.975 4.905-.403 2.575 3.271.697-.401 2.578 3.269.695zm-28.789 10.004 16.519 3.469 2.043-12.978-16.452-3.491-2.11 12.999zm74.21-.347-1.088 7.719-9.699-2.049.741-5.155-16.209-3.439-1.152 7.752 19.487 4.109-.369 2.586 3.238.681-.367 2.589 3.237.68-1.832 13-3.25-.675-.371 2.613-3.257-.675-.374 2.618-22.913-4.741.393-2.624-3.285-.681.395-2.621-3.286-.683 1.188-7.84 9.821 2.054-.775 5.217 16.327 3.4 1.123-7.808-19.554-4.098.389-2.6-3.269-.686.391-2.597-3.27-.688 1.96-12.932 3.256.692.388-2.574 3.25.692.384-2.569 22.636 4.832-.366 2.563 3.223.687-.364 2.566 3.221.685zm44.753 9.514-.981 7.683-9.556-2.019.669-5.131-15.971-3.388-1.043 7.716 19.2 4.049-.333 2.574 3.191.671-.331 2.577 3.189.67-1.651 12.939-3.202-.665-.334 2.6-3.209-.665-.337 2.605-22.573-4.671.356-2.611-3.236-.671.358-2.608-3.237-.673 1.077-7.803 9.676 2.023-.702 5.193 16.086 3.35 1.014-7.771-19.266-4.037.352-2.588-3.22-.676.354-2.585-3.221-.678 1.777-12.872 3.208.682.351-2.562 3.202.682.348-2.558 22.305 4.761-.33 2.552 3.176.677-.328 2.555 3.174.675zm65.995 42.806-3.128-.65-.279 2.581-3.135-.65-.282 2.586-15.738-3.256.294-2.59-3.155-.654.297-2.587-3.155-.656.299-2.584-3.157-.657-.301 2.585-3.162-.657-.304 2.59-3.168-.657-.307 2.595-15.903-3.291.32-2.599-3.188-.661.322-2.596-3.189-.663 4.17-33.41 9.459 2.019L224.704 224l9.52 1.982.308-2.583 3.164.66.305-2.579 3.158.66 3.002-25.576 9.38 2.002-2.928 25.55 3.145.658-.293 2.575 3.144.656-.291 2.577 9.42 1.962 3.373-30.654 9.303 1.986-3.562 33.2zm46.123-18.969-2.651 28.002-3.083-.641-.246 2.569-3.09-.641-.248 2.574-21.734-4.497.265-2.58-3.116-.646.267-2.577-3.116-.648 2.939-28.105 3.09.657.262-2.532 3.084.657.26-2.528 21.485 4.586-.243 2.522 3.059.652-.241 2.525 3.057.65zm-9.43.577-15.382-3.264-2.34 22.972 15.489 3.225 2.233-22.934zm51.917 8.456-1.456 17.686-3.03-.635-.211 2.542-3.036-.635-.214 2.547 3.038.634-.212 2.549 3.037.632-.631 7.668-9.142-1.892.435-5.121-3.049-.634.219-2.556-3.05-.635.221-2.552-9.162-1.912-.915 10.243-9.218-1.907 3.51-38.147 27.257 5.819-.211 2.51 3.015.642-.209 2.513zm-9.266.593-15.162-3.217-1.132 12.667 15.22 3.196z" fill="#05d8e8"/><g fill="#005679"><path d="m47.1 260.255 4.892-28.748 5.915 1.006-4.891 28.748z"/><path d="m36.86 237.848 3.705-4.719L68.16 254.8l-3.706 4.72z"/><path d="m35.215 248.525 32.67-10.08 1.77 5.733-32.671 10.08zm90.865 27.315 4.195-28.51 5.937.874-4.196 28.51z"/><path d="m115.691 253.63 3.708-4.717 27.212 21.39-3.708 4.717z"/><path d="m114.402 264.181 31.528-10.098 1.83 5.714-31.528 10.098zm88.676 26.854 3.533-28.275 5.953.744-3.533 28.275z"/><path d="m192.55 269.01 3.71-4.716 26.84 21.115-3.71 4.716z"/><path d="m191.595 279.447 30.433-10.11 1.892 5.694-30.434 10.11zm86.571 26.403 2.9-28.043 5.969.618-2.901 28.042z"/><path d="m267.51 284.015 3.713-4.714 26.476 20.848-3.712 4.714z"/><path d="m266.873 294.332 29.382-10.12 1.954 5.672-29.382 10.12zm84.543 25.972 2.299-27.813 5.98.494-2.3 27.813z"/><path d="m340.641 298.657 3.714-4.713 26.124 20.589-3.714 4.712z"/><path d="m340.304 308.85 28.374-10.126 2.016 5.651-28.373 10.126zm82.592 25.56 1.727-27.587 5.988.375-1.727 27.586z"/><path d="m412.007 312.94 3.715-4.71 25.781 20.334-3.716 4.711z"/><path d="m411.954 323.025 27.404-10.128 2.08 5.628-27.404 10.128z"/></g><path d="m409.285 239.562-1.188 28.761-3.153-.665-.116 2.665-3.155-.668-.121 2.672-28.241-5.993 2.468-38.743 27.549 5.601-.116 2.548 3.087.63-.111 2.559 3.096.633zm-9.398.665-15.402-3.158-1.343 23.321 15.633 3.289z" fill="#3386ff" opacity=".9"/><path d="m403.285 237.562-1.188 28.761-3.153-.665-.116 2.665-3.155-.668-.121 2.672-28.241-5.993 2.468-38.743 27.549 5.601-.116 2.548 3.087.63-.111 2.559 3.096.633zm-9.398.665-15.402-3.158-1.343 23.321 15.633 3.289z" fill="#7afcb5" opacity=".9"/><path d="m408.285 233.562-1.188 28.761-3.153-.665-.116 2.665-3.155-.668-.121 2.672-28.241-5.993 2.468-38.743 27.549 5.601-.116 2.548 3.087.63-.111 2.559 3.096.633zm-9.398.665-15.402-3.158-1.343 23.321 15.633 3.289z" fill="#ff719d" opacity=".9"/><path d="m406.285 235.562-1.188 28.761-3.153-.665-.116 2.665-3.155-.668-.121 2.672-28.241-5.993 2.468-38.743 27.549 5.601-.116 2.548 3.087.63-.111 2.559 3.096.633zm-9.398.665-15.402-3.158-1.343 23.321 15.633 3.289z" fill="#05d8e8"/></svg></g><g transform="translate(1908.0 1078.0) rotate(0.0 296.0 250.0) scale(2.0022119030144787 2.0022264758411352)"><svg width="295.673" height="249.722" viewBox="0 0 295.673 249.722"><linearGradient id="an" gradientUnits="userSpaceOnUse" x1="150.813" x2="166.529" y1="242.058" y2="168.576"><stop offset=".415" stop-color="#9ad9ef" stop-opacity="0"/><stop offset=".808" stop-color="#9ad9ef"/></linearGradient><path d="M96.661 198.865c7.162 2.859 17.668 7.324 20.905.421 2.048-4.371 3.328-23.234 3.986-36.283.383-7.442.551-13.026.551-13.026l55.662 12.307s.804 6.737 2.116 16.151c2.812 20.095 7.987 52.567 12.61 57.16 3.658 3.633 20.236 13.359 20.236 13.359s-56.08 10.975-116.067-50.09z" fill="url(#an)"/><path d="M189.147 121.424s3.667-4.154 8.051-.328c3.601 3.143 2.165 9.403-.731 18.518-2.919 9.19-5.805 13.785-11.485 7.893-5.676-5.888 4.165-26.084 4.165-26.084zm-86.336-20.023s-2.871-3.834-6.861-2.839-4.897 7.977-1.891 15.549c3.015 7.593 10.7 16.758 13.281 18.281 2.58 1.522 4.429-2.558 4.429-2.558l-8.958-28.432z" fill="#9ad9ef"/><path d="M97.201 91.336c.2.719 10.454 35.131 14.796 50.028 1.14 3.911 3.775 7.562 7.25 10.043l32.289 23.982c3.896 2.974 8.535 3.763 11.977 2.048 7.64-3.807 21.354-13.04 23.898-17.096 3.64-5.803 5.403-63.802 4.929-68.231-.473-4.42-3.095-20.751-20.873-26.991-17.861-6.27-65.064-15.818-69.61-7.401-4.578 8.475-8.793 18.772-4.656 33.618z" fill="#9ad9ef"/><path d="M192.198 106.834c-1.26-9.907-7.042-14.545-7.042-14.545s1.829-3.893 2.145-5.463c.317-1.561-1.596-2.629-1.596-2.629l.103-.384.916-3.26s-13.792-11.217-41.634-17.792c-28.105-6.637-39.884-.32-39.884-.32l.172 4.607s-.35.197-.746.495c-.57.425-1.23 1.052-1.089 1.572.244.887 1.848 7.658 1.848 7.658s-7.39 2.49-7.152 18.068c-5.261-12.482-4.346-25.997-3.303-31.273.077-.381.167-.822.297-1.318 1.942-8.009 10.567-29.93 45.268-21.616 35.194 8.432 46.886 30.493 49.664 39.293.33 1.056.624 2.143.879 3.253 1.871 8.19 1.704 17.629 1.152 23.653z" fill="#005679"/><path d="M105.393 76.773s-7.39 2.49-7.152 18.068c-5.261-12.482-4.346-25.997-3.303-31.273.077-.381.167-.822.297-1.318l9.399 5.292c-.57.425-1.23 1.052-1.089 1.572.244.887 1.848 7.658 1.848 7.658zm86.805 30.061c-1.26-9.907-7.042-14.545-7.042-14.545s1.829-3.893 2.145-5.463c.317-1.561-1.596-2.629-1.596-2.629l.103-.384 5.237-.632c1.871 8.19 1.704 17.629 1.152 23.653zm-82.855 25.486a148.402 148.402 0 0 1-9.922-33.492 148.335 148.335 0 0 1 9.922 33.492zm80.179 17.814a112.862 112.862 0 0 1 2.187-30.372 112.865 112.865 0 0 1-2.187 30.372z" fill="#0ea8cc"/><path d="M101.589 106.123c-1.129-1.229-3.83-3.192-4.983-1.35-.357.593-.491 1.445-.793 2.367-1.397-1.855-.801-5.045 1.926-5.104 2.235-.013 4.084 1.991 3.85 4.087zm89.612 20.698c-.91-3.266 3.245-6.207 5.64-3.323.661.853.691 2.019.155 2.748-.313-.85-.772-1.375-1.265-1.634-1.927-.998-3.305.764-4.53 2.209zm-69.22 26.618c9.433 6.029 18.497 12.534 27.492 19.175 9.877 7.215 12.05 5.309 21.728-.298l7.303-4.135c-4.477 3.397-8.971 6.653-13.877 9.56-2.604 1.505-5.948 1.719-8.777.739-2.845-.954-5.238-2.63-7.517-4.223-8.968-6.7-17.853-13.525-26.354-20.817z" fill="#0ea8cc"/><g fill="#3386ff" opacity=".9"><path d="M45.228 46.363 44.305 4l43.464 10.508-.94 3.888-38.412-9.287.81 37.167zm189.551 44.722-2.731-37.581-37.604-9.092.94-3.888 40.442 9.778 2.942 40.493zM93.277 212.091l-44.645-9.406-.975-44.763 3.999-.087.906 41.591 41.539 8.751zm156.704 33.016-43.572-9.18.824-3.914 38.373 8.084-2.88-39.63 3.989-.29z"/></g><g fill="#7afcb5" opacity=".9"><path d="M43.228 43.363 42.305 1l43.464 10.508-.94 3.888-38.412-9.287.81 37.167zm189.551 44.722-2.731-37.581-37.604-9.092.94-3.888 40.442 9.778 2.942 40.493zM91.277 209.091l-44.645-9.406-.975-44.763 3.999-.087.906 41.591 41.539 8.751zm156.704 33.016-43.572-9.18.824-3.914 38.373 8.084-2.88-39.63 3.989-.29z"/></g><g fill="#ff719d" opacity=".9"><path d="M46.228 42.363 45.305 0l43.464 10.508-.94 3.888-38.412-9.287.81 37.167zm189.551 44.722-2.731-37.581-37.604-9.092.94-3.888 40.442 9.778 2.942 40.493zM94.277 208.091l-44.645-9.406-.975-44.763 3.999-.087.906 41.591 41.539 8.751zm156.704 33.016-43.572-9.18.824-3.914 38.373 8.084-2.88-39.63 3.989-.29z"/></g><g fill="#05d8e8"><path d="M45.228 44.363 44.305 2l43.464 10.508-.94 3.888-38.412-9.287.81 37.167zm189.551 44.722-2.731-37.581-37.604-9.092.94-3.888 40.442 9.778 2.942 40.493zM93.277 210.091l-44.645-9.406-.975-44.763 3.999-.087.906 41.591 41.539 8.751zm156.704 33.016-43.572-9.18.824-3.914 38.373 8.084-2.88-39.63 3.989-.29zM0 77.405l.394-1.961L34.047 82.2l-.394 1.961zm0 18.417.395-1.96 30.914 6.235-.396 1.96zm279.636 110.992-1.763-20.658-67.107-14.711.428-1.954 68.546 15.027 1.889 22.126zm-15.609 8.204.341-1.97 31.305 5.428-.342 1.97zM255.1 78.376l.452-1.948 30 6.977-.453 1.948zm2.003 20.401.453-1.948 30 6.978-.453 1.948z"/></g></svg></g><g transform="translate(2442.0 1412.0) rotate(0.0 211.0 220.0) scale(2.0091698129377202 2.0069055796536266)"><svg width="210.037" height="219.243" viewBox="0 0 210.037 219.243"><linearGradient id="ao" gradientUnits="userSpaceOnUse" x1="205.077" x2="34.469" y1="14.165" y2="177.73"><stop offset=".178" stop-color="#005679"/><stop offset=".925" stop-color="#0ea8cc"/></linearGradient><path d="M199.31 214.148 30.12 184.756c-4.18-.726-7.884-4.526-8.261-8.478L6.029 10.116c-.352-3.69 2.664-5.871 6.722-4.88l164.691 40.226c3.531.862 6.752 4.359 7.204 7.817l20.333 155.327c.482 3.686-2.051 6.17-5.669 5.541z" fill="url(#ao)" opacity=".7"/><g fill="none" opacity=".9"><path d="M200.384 213.243a8.31 8.31 0 0 1-1.417-.124L29.778 183.726c-5.092-.884-9.444-5.391-9.909-10.26L4.037 7.305c-.219-2.294.53-4.31 2.109-5.675C7.904.11 10.486-.376 13.226.294l164.691 40.225c4.326 1.057 8.153 5.23 8.713 9.501l20.332 155.327c.316 2.413-.385 4.644-1.925 6.12-1.207 1.158-2.853 1.775-4.653 1.775zM10.85 3.997c-.856 0-1.583.225-2.087.66-.732.634-.809 1.584-.743 2.27l15.831 166.161c.291 3.059 3.319 6.126 6.611 6.697l169.19 29.393c1.087.187 2.017-.022 2.616-.597.62-.595.879-1.559.727-2.714L182.663 50.54c-.348-2.656-2.956-5.465-5.695-6.134L12.277 4.18a6.023 6.023 0 0 0-1.427-.184z" fill="#83bbff"/><g fill="#3386ff"><path d="M138.148 105.372c-3.883-32.124-29.271-49.229-45.792-47.347C79.731 59.463 73.624 70.884 75.6 89.359l-7.955.852c-2.915-27.26 10.386-38.605 23.806-40.135 22.425-2.543 50.383 19.131 54.639 54.336l-7.941.96z"/><path d="m153.78 135.79-4.02-32.86-89.34-19.29 3.56 33.99c2.16 20.61 21.48 40.75 42.79 44.74l14.24 2.67c20.69 3.87 35.21-9.32 32.77-29.25zm-40.49-10.74 1.42 12.44-7.21-1.44-1.41-12.46c-2.56-1.75-4.46-4.53-4.78-7.34-.47-4.06 2.58-6.65 6.81-5.77 4.19.87 7.96 4.86 8.42 8.89.33 2.8-1.01 4.92-3.25 5.68z"/></g></g><g fill="#7afcb5" opacity=".9"><path d="M196.384 215.243a8.31 8.31 0 0 1-1.417-.124L25.778 185.726c-5.092-.884-9.444-5.391-9.909-10.26L.037 9.305c-.219-2.294.53-4.31 2.109-5.675 1.758-1.521 4.339-2.006 7.079-1.336l164.691 40.225c4.326 1.057 8.153 5.23 8.713 9.501l20.332 155.327c.316 2.413-.385 4.644-1.925 6.12-1.207 1.158-2.853 1.775-4.653 1.775zM6.85 5.997c-.856 0-1.583.225-2.087.66-.732.634-.809 1.584-.743 2.27l15.831 166.161c.291 3.059 3.319 6.126 6.611 6.697l169.19 29.393c1.087.187 2.017-.022 2.616-.597.62-.595.879-1.559.727-2.714L178.663 52.54c-.348-2.656-2.956-5.465-5.695-6.134L8.277 6.18a6.023 6.023 0 0 0-1.427-.184z"/><path d="M134.148 107.372c-3.883-32.124-29.271-49.229-45.792-47.347C75.731 61.463 69.624 72.884 71.6 91.359l-7.955.852c-2.915-27.26 10.386-38.605 23.806-40.135 22.425-2.543 50.383 19.131 54.639 54.336l-7.941.96z"/><path d="m149.78 137.79-4.02-32.86-89.34-19.29 3.56 33.99c2.16 20.61 21.48 40.75 42.79 44.74l14.24 2.67c20.69 3.87 35.21-9.32 32.77-29.25zm-40.49-10.74 1.42 12.44-7.21-1.44-1.41-12.46c-2.56-1.75-4.46-4.53-4.78-7.34-.47-4.06 2.58-6.65 6.81-5.77 4.19.87 7.96 4.86 8.42 8.89.33 2.8-1.01 4.92-3.25 5.68z"/></g><g fill="#ff719d" opacity=".9"><path d="M203.384 219.243a8.31 8.31 0 0 1-1.417-.124L32.778 189.726c-5.092-.884-9.444-5.391-9.909-10.26L7.037 13.305c-.219-2.294.53-4.31 2.109-5.675 1.758-1.521 4.339-2.006 7.079-1.336l164.691 40.225c4.326 1.057 8.153 5.23 8.713 9.501l20.332 155.327c.316 2.413-.385 4.644-1.925 6.12-1.207 1.158-2.853 1.775-4.653 1.775zM13.85 9.997c-.856 0-1.583.225-2.087.66-.732.634-.809 1.584-.743 2.27l15.831 166.161c.291 3.059 3.319 6.126 6.611 6.697l169.19 29.393c1.087.187 2.017-.022 2.616-.597.62-.595.879-1.559.727-2.714L185.663 56.54c-.348-2.656-2.956-5.465-5.695-6.134L15.277 10.18a6.023 6.023 0 0 0-1.427-.184z"/><path d="M141.148 111.372c-3.883-32.124-29.271-49.229-45.792-47.347C82.731 65.463 76.624 76.884 78.6 95.359l-7.955.852c-2.915-27.26 10.386-38.605 23.806-40.135 22.425-2.543 50.383 19.131 54.639 54.336l-7.941.96z"/><path d="m156.78 141.79-4.02-32.86-89.34-19.29 3.56 33.99c2.16 20.61 21.48 40.75 42.79 44.74l14.24 2.67c20.69 3.87 35.21-9.32 32.77-29.25zm-40.49-10.74 1.42 12.44-7.21-1.44-1.41-12.46c-2.56-1.75-4.46-4.53-4.78-7.34-.47-4.06 2.58-6.65 6.81-5.77 4.19.87 7.96 4.86 8.42 8.89.33 2.8-1.01 4.92-3.25 5.68z"/></g><path d="M200.384 216.243a8.29 8.29 0 0 1-1.416-.124l-169.19-29.392c-5.093-.885-9.446-5.391-9.909-10.259L4.038 10.306c-.219-2.294.53-4.31 2.108-5.675 1.757-1.52 4.338-2.007 7.079-1.338l164.691 40.226c4.327 1.057 8.154 5.23 8.713 9.5l20.333 155.327c.316 2.413-.386 4.644-1.925 6.12-1.207 1.158-2.853 1.775-4.653 1.775zm-.732-4.065c1.088.189 2.018-.023 2.616-.597.62-.595.879-1.559.728-2.714L182.663 53.54c-.347-2.656-2.956-5.464-5.696-6.134L12.276 7.179c-1.467-.359-2.748-.185-3.513.477-.733.634-.809 1.584-.743 2.27l15.831 166.161c.291 3.058 3.319 6.126 6.612 6.698l169.19 29.392z" fill="#d1f9ff"/><g fill="#fff"><path d="M138.148 108.373c-3.883-32.124-29.283-49.228-45.792-47.348C79.731 62.463 73.624 73.884 75.6 92.359l-7.955.851C64.729 65.951 78.03 54.605 91.45 53.076c22.43-2.554 50.384 19.132 54.639 54.336l-7.942.96z"/><path d="m153.778 138.79-4.02-32.86-89.34-19.29 3.56 33.99c2.16 20.61 21.48 40.75 42.79 44.74l14.24 2.67c20.69 3.87 35.21-9.32 32.77-29.25zm-40.49-10.74 1.42 12.44-7.21-1.44-1.41-12.46c-2.56-1.75-4.46-4.53-4.78-7.34-.47-4.06 2.58-6.65 6.81-5.77 4.19.87 7.96 4.86 8.42 8.89.33 2.8-1.01 4.92-3.25 5.68z"/></g></svg></g><g transform="translate(1916.0 1696.0) rotate(0.0 310.0 100.0) scale(1.9974098105037983 2.0014009806864803)"><svg width="310.402" height="99.93" viewBox="0 0 310.402 99.93"><path d="m23.782 29.308-2.066-.368c-1.82-.325-3.306-2.342-3.32-4.503-.014-2.158 1.447-3.64 3.262-3.314l2.06.37c1.812.326 3.296 2.335 3.316 4.491.02 2.159-1.436 3.649-3.253 3.325z" fill="#0ea8cc"/><path d="M23.701 43.245 4.95 30.857l-.03-17.61 18.495-5.556z" fill="#d1f9ff"/><path d="M3.039 36.608C1.361 36.312 0 34.455 0 32.463V9.908c0-1.959 1.347-3.3 3.009-2.999 1.66.302 3.009 2.131 3.013 4.089l.046 22.539c.004 1.991-1.351 3.367-3.029 3.071z" fill="#0ea8cc"/><g fill="#3386ff" opacity=".9"><path d="m34.236 14.97 4-.05.366 29.585-4 .05zm12.576-7.325 4-.067.821 49.099-4 .067zm12.496-4.561L63.307 3l1.328 63.066-3.999.084zm12.727 9.203 3.998-.102 1.242 48.954-3.999.101zm12.812 11.911 3.999-.119.87 29.409-3.997.118zm12.511 2.282 3.998-.135.994 29.364-3.998.135zm12.705 8.791 3.997-.152.616 16.176-3.998.152zm12.495 3.861 3.996-.17.546 12.923-3.996.17zm11.557-15.42 3.996-.186 2.256 48.59-3.995.186zm12.047-1.801 3.995-.202 2.872 56.775-3.995.202zm12.181 2.252 3.994-.218 3.1 56.69-3.993.218zm12.226 3.914 3.993-.234 3.127 53.193-3.993.235zm12.919 15.578 3.992-.25 1.638 26.054-3.992.251zm12.692 11.33 3.99-.267.512 7.654-3.99.267zm10.829-15.237 3.99-.283 3.033 42.765-3.99.283zm11.743-.461 3.989-.299 3.603 48.09-3.989.298zm12.859 14.59 3.988-.315 1.807 22.912-3.987.315zm10.657-12.575 3.986-.33 4.368 52.724-3.986.33zm12.916 15.406 3.985-.346 2.241 25.824-3.985.345zm11.386-2.058 3.983-.362 3.108 34.278-3.983.362zm11.32-1.89 3.983-.376 4.008 42.388-3.983.377zm11.377-.496 3.98-.391 4.692 47.665-3.981.392zM302.1 66.692l3.98-.407 2.321 22.71-3.979.408z"/></g><g fill="#7afcb5" opacity=".9"><path d="m32.236 12.97 4-.05.366 29.584-4 .05zm12.577-7.326 3.999-.067.822 49.1-4 .066zm12.494-4.56 4-.085 1.328 63.066-4 .085zm12.728 9.202 3.998-.101 1.242 48.953-3.999.101zm12.813 11.912 3.998-.118.871 29.408-3.998.118zm12.51 2.282 3.998-.136.994 29.365-3.998.135zm12.705 8.792 3.997-.152.616 16.176-3.997.152zm12.495 3.86 3.996-.17.547 12.923-3.997.17zm11.557-15.421 3.996-.185 2.257 48.59-3.996.186zm12.047-1.801 3.995-.201 2.872 56.774-3.995.202zm12.181 2.253 3.994-.218 3.1 56.69-3.993.219zm12.226 3.914 3.993-.234 3.128 53.193-3.994.234zm12.919 15.578 3.992-.251 1.638 26.054-3.992.251zm12.691 11.33 3.991-.267.512 7.654-3.99.267zm10.829-15.236 3.99-.283 3.033 42.764-3.99.283zm11.744-.462 3.989-.299 3.603 48.09-3.989.298zm12.858 14.589 3.989-.314 1.807 22.911-3.987.315zm10.657-12.574 3.987-.33 4.368 52.723-3.987.33zm12.917 15.405 3.985-.346 2.24 25.824-3.984.346zm11.386-2.058 3.984-.361 3.108 34.278-3.984.361zm11.32-1.889 3.983-.376 4.007 42.388-3.982.377zm11.377-.495 3.981-.392 4.691 47.666-3.98.392zM300.1 64.692l3.98-.407 2.321 22.71-3.98.407z"/></g><g fill="#ff719d" opacity=".9"><path d="m36.236 11.97 4-.05.367 29.584-4 .05zm12.576-7.325 4-.067.822 49.099-4 .067zM61.307.084l4-.085 1.328 63.066-4 .085zm12.728 9.203 3.999-.101 1.241 48.953-3.998.101zm12.813 11.911 3.998-.118.871 29.408-3.998.118zm12.51 2.282 3.997-.135.995 29.364-3.998.135zm12.705 8.791 3.997-.152.616 16.176-3.997.153zm12.494 3.861 3.996-.17.547 12.923-3.997.17zm11.558-15.421 3.995-.186 2.257 48.591-3.996.186zm12.047-1.8 3.994-.202 2.873 56.774-3.995.202zm12.18 2.252 3.994-.218 3.101 56.69-3.994.219zm12.228 3.914 3.992-.235 3.128 53.194-3.993.234zm12.918 15.578 3.992-.251 1.638 26.054-3.992.251zm12.692 11.33 3.99-.267.513 7.655-3.991.267zm10.829-15.237 3.99-.283 3.033 42.765-3.99.283zm11.743-.461 3.989-.299 3.603 48.09-3.989.298zm12.86 14.59 3.987-.315 1.808 22.912-3.988.315zm10.655-12.575 3.986-.33 4.368 52.723-3.986.33zm12.917 15.405 3.985-.346 2.24 25.824-3.985.346zm11.386-2.058 3.983-.361 3.108 34.278-3.983.361zm11.32-1.889 3.983-.376 4.007 42.388-3.982.377zm11.377-.495 3.98-.392 4.692 47.666-3.98.392zM304.1 63.692l3.98-.407 2.322 22.71-3.98.408z"/></g><g fill="#05d8e8"><path d="m34.236 12.97 4-.05.366 29.585-4 .05zm12.576-7.326 4-.067.822 49.099-4 .067zm12.495-4.56 4-.085 1.328 63.066-3.999.085zm12.728 9.202 3.999-.101 1.241 48.953-3.998.102zm12.812 11.912 3.998-.119.872 29.408-3.999.119zm12.511 2.282 3.997-.135.995 29.364-3.998.135zm12.705 8.792 3.997-.153.616 16.177-3.998.152zm12.494 3.859 3.996-.169.547 12.923-3.997.169zm11.558-15.419 3.996-.186 2.256 48.59-3.995.186zm12.047-1.802 3.994-.201 2.873 56.774-3.995.202zm12.181 2.253 3.994-.218 3.1 56.69-3.993.218zm12.225 3.915 3.993-.235 3.128 53.193-3.993.235zm12.92 15.577 3.992-.25 1.638 26.054-3.992.251zm12.692 11.33 3.99-.267.513 7.655-3.991.267zm10.828-15.237 3.99-.283 3.033 42.765-3.99.283zm11.744-.46 3.99-.3 3.602 48.09-3.988.299zm12.86 14.589 3.987-.315 1.808 22.912-3.988.315zm10.655-12.575 3.987-.33 4.368 52.723-3.987.33zm12.918 15.405 3.985-.346 2.24 25.824-3.985.346zm11.385-2.057 3.984-.362 3.108 34.279-3.984.36zm11.32-1.89 3.983-.376 4.007 42.388-3.982.376zm11.377-.495 3.98-.392 4.692 47.666-3.981.392zM302.1 64.692l3.98-.407 2.322 22.711-3.98.407z"/></g></svg></g></svg>